<svg width="21" height="21" viewBox="0 0 21 21" fill="none" xmlns="http://www.w3.org/2000/svg">
<g clip-path="url(#clip0_176_1656)">
<path d="M20.2009 12.9183C18.8648 18.2783 13.4342 21.5366 8.08186 20.2004C2.72171 18.8643 -0.536573 13.434 0.799599 8.08171C2.13569 2.72171 7.55835 -0.536573 12.9185 0.799599C18.2709 2.12788 21.537 7.55819 20.2009 12.9183Z" fill="url(#paint0_linear_176_1656)"/>
<path d="M15.2613 9.25391C15.4566 7.92578 14.4488 7.20703 13.0582 6.73047L13.5113 4.92578L12.4176 4.65234L11.9801 6.41016C11.691 6.33984 11.3941 6.26953 11.0973 6.20703L11.5348 4.44141L10.441 4.16797L9.9957 5.96484C9.75351 5.91016 9.51913 5.85547 9.29257 5.80078V5.79297L7.77695 5.41797L7.48788 6.58984C7.48788 6.58984 8.30038 6.77734 8.28476 6.78516C8.73007 6.89453 8.8082 7.19141 8.79257 7.42578L8.27695 9.48047C8.3082 9.48828 8.34726 9.49609 8.39413 9.51953C8.35507 9.51172 8.31601 9.50391 8.27695 9.48828L7.5582 12.3633C7.50351 12.4961 7.36288 12.6992 7.0582 12.6211C7.06601 12.6367 6.26132 12.4258 6.26132 12.4258L5.71445 13.6836L7.14413 14.043C7.40976 14.1133 7.66757 14.1758 7.92538 14.2461L7.47226 16.0664L8.56601 16.3398L9.01913 14.5352C9.31601 14.6133 9.61288 14.6914 9.89413 14.7617L9.44882 16.5586L10.5426 16.832L10.9957 15.0117C12.8707 15.3633 14.2769 15.2227 14.8629 13.5273C15.3394 12.168 14.8394 11.3789 13.8551 10.8633C14.5816 10.6992 15.1207 10.2227 15.2613 9.25391ZM12.7535 12.7695C12.4176 14.1289 10.1207 13.3945 9.37851 13.207L9.98007 10.793C10.7223 10.9805 13.1129 11.3477 12.7535 12.7695ZM13.0973 9.23047C12.7848 10.4727 10.8785 9.83984 10.2613 9.68359L10.8082 7.49609C11.4254 7.65234 13.4176 7.94141 13.0973 9.23047Z" fill="white"/>
</g>
<defs>
<linearGradient id="paint0_linear_176_1656" x1="999.959" y1="0.0200004" x2="999.959" y2="2000.3" gradientUnits="userSpaceOnUse">
<stop stop-color="#F9AA4B"/>
<stop offset="1" stop-color="#F7931A"/>
</linearGradient>
<clipPath id="clip0_176_1656">
<rect width="20" height="20" fill="white" transform="translate(0.5 0.5)"/>
</clipPath>
</defs>
</svg>
