<svg width="21" height="21" viewBox="0 0 21 21" fill="none" xmlns="http://www.w3.org/2000/svg">
<path d="M10.0347 20.5C15.5576 20.5 20.0347 16.0228 20.0347 10.5C20.0347 4.97715 15.5576 0.5 10.0347 0.5C4.51188 0.5 0.034729 4.97715 0.034729 10.5C0.034729 16.0228 4.51188 20.5 10.0347 20.5Z" fill="#F3BA2F"/>
<path d="M7.60723 9.5025L10.0347 7.075L12.4635 9.50375L13.876 8.09125L10.0347 4.25L6.19473 8.09L7.60723 9.5025ZM3.78473 10.5L5.19723 9.0875L6.60973 10.5L5.19723 11.9125L3.78473 10.5ZM7.60723 11.4975L10.0347 13.925L12.4635 11.4963L13.876 12.9081L10.0347 16.75L6.19473 12.91L6.19285 12.9081L7.60723 11.4975ZM13.4597 10.5L14.8722 9.0875L16.2847 10.5L14.8722 11.9125L13.4597 10.5ZM11.4672 10.4988H11.4685V10.5L10.0347 11.9338L8.60285 10.5025L8.60035 10.5L8.60285 10.4981L8.85348 10.2469L8.97535 10.125L10.0347 9.06625L11.4679 10.4994L11.4672 10.4988Z" fill="white"/>
</svg>
