<svg width="21" height="21" viewBox="0 0 21 21" fill="none" xmlns="http://www.w3.org/2000/svg">
<path d="M10.0347 20.5C15.5576 20.5 20.0347 16.0228 20.0347 10.5C20.0347 4.97715 15.5576 0.5 10.0347 0.5C4.51188 0.5 0.034729 4.97715 0.034729 10.5C0.034729 16.0228 4.51188 20.5 10.0347 20.5Z" fill="#EF0027"/>
<path d="M13.7422 6.69564L4.72223 5.03564L9.4691 16.9806L16.0835 8.92189L13.7422 6.69564ZM13.5972 7.42689L14.9772 8.73877L11.2035 9.42189L13.5972 7.42689ZM10.3835 9.28502L6.40598 5.98627L12.9072 7.18252L10.3835 9.28502ZM10.1004 9.86877L9.4516 15.2313L5.95473 6.42939L10.1004 9.86877ZM10.7004 10.1531L14.8797 9.39689L10.086 15.2363L10.7004 10.1531Z" fill="white"/>
</svg>
