<svg width="40" height="40" viewBox="0 0 26 26" fill="none" xmlns="http://www.w3.org/2000/svg">
<path d="M8.1002 9.8V8.8C7.54791 8.8 7.1002 9.24772 7.1002 9.8H8.1002ZM8.1002 11.4L8.8073 12.1071L9.1002 11.8142V11.4H8.1002ZM5.36882 11.8686L4.66172 12.5757L4.66172 12.5757L5.36882 11.8686ZM11.3002 21.8H12.3002V21.3858L12.0073 21.0929L11.3002 21.8ZM9.7002 20.2H8.7002V20.6142L8.99309 20.9071L9.7002 20.2ZM9.7002 17.8H10.7002V17.3858L10.4073 17.0929L9.7002 17.8ZM8.1002 16.2H7.1002V16.6142L7.39309 16.9071L8.1002 16.2ZM8.1002 14.6V13.6C7.54791 13.6 7.1002 14.0477 7.1002 14.6H8.1002ZM15.1002 1.8V5H17.1002V1.8H15.1002ZM14.5002 5.6H12.9002V7.6H14.5002V5.6ZM9.7002 8.8H8.1002V10.8H9.7002V8.8ZM7.1002 9.8V11.4H9.1002V9.8H7.1002ZM7.39309 10.6929L6.92446 11.1615L8.33867 12.5757L8.8073 12.1071L7.39309 10.6929ZM6.07593 11.1615L3.2073 8.2929L1.79309 9.70711L4.66172 12.5757L6.07593 11.1615ZM10.3002 8.2C10.3002 8.53137 10.0316 8.8 9.7002 8.8V10.8C11.1361 10.8 12.3002 9.63594 12.3002 8.2H10.3002ZM12.9002 5.6C11.4643 5.6 10.3002 6.76406 10.3002 8.2H12.3002C12.3002 7.86863 12.5688 7.6 12.9002 7.6V5.6ZM6.92446 11.1615C6.69015 11.3958 6.31025 11.3958 6.07593 11.1615L4.66172 12.5757C5.67708 13.5911 7.32331 13.5911 8.33867 12.5757L6.92446 11.1615ZM15.1002 5C15.1002 5.33137 14.8316 5.6 14.5002 5.6V7.6C15.9361 7.6 17.1002 6.43594 17.1002 5H15.1002ZM12.3002 24.2V21.8H10.3002V24.2H12.3002ZM12.0073 21.0929L10.4073 19.4929L8.99309 20.9071L10.5931 22.5071L12.0073 21.0929ZM10.7002 20.2V17.8H8.7002V20.2H10.7002ZM10.4073 17.0929L8.8073 15.4929L7.39309 16.9071L8.99309 18.5071L10.4073 17.0929ZM9.1002 16.2V14.6H7.1002V16.2H9.1002ZM8.1002 15.6H14.5002V13.6H8.1002V15.6ZM15.1002 16.2V17.2667H17.1002V16.2H15.1002ZM18.2335 20.4H22.5002V18.4H18.2335V20.4ZM16.7002 18.8667C16.7002 19.7135 17.3867 20.4 18.2335 20.4V18.4C18.4913 18.4 18.7002 18.6089 18.7002 18.8667H16.7002ZM16.6335 18.8C16.6703 18.8 16.7002 18.8299 16.7002 18.8667H18.7002C18.7002 17.7253 17.7749 16.8 16.6335 16.8V18.8ZM15.1002 17.2667C15.1002 18.1135 15.7867 18.8 16.6335 18.8V16.8C16.8913 16.8 17.1002 17.0089 17.1002 17.2667H15.1002ZM14.5002 15.6C14.8316 15.6 15.1002 15.8686 15.1002 16.2H17.1002C17.1002 14.7641 15.9361 13.6 14.5002 13.6V15.6ZM12.9002 23.2C7.26689 23.2 2.7002 18.6333 2.7002 13H0.700195C0.700195 19.7379 6.16232 25.2 12.9002 25.2V23.2ZM23.1002 13C23.1002 18.6333 18.5335 23.2 12.9002 23.2V25.2C19.6381 25.2 25.1002 19.7379 25.1002 13H23.1002ZM12.9002 2.8C18.5335 2.8 23.1002 7.3667 23.1002 13H25.1002C25.1002 6.26213 19.6381 0.800003 12.9002 0.800003V2.8ZM12.9002 0.800003C6.16232 0.800003 0.700195 6.26213 0.700195 13H2.7002C2.7002 7.3667 7.26689 2.8 12.9002 2.8V0.800003Z" fill="#676D75"/>
</svg>
