<svg width="40" height="40" viewBox="0 0 25 26" fill="none" xmlns="http://www.w3.org/2000/svg">
<path d="M17.5001 10.6V18.6M17.5001 11.4H20.7001V13.8M17.5001 17.8H20.7001V15.4M3.1001 9V3.4C3.1001 2.51635 3.81644 1.8 4.7001 1.8H17.5001L22.3001 6.6V9M3.1001 20.2V22.6C3.1001 23.4837 3.81644 24.2 4.7001 24.2H20.7001C21.5838 24.2 22.3001 23.4837 22.3001 22.6V20.2M4.7001 11.4V17.8H6.3001C7.18375 17.8 7.9001 17.0837 7.9001 16.2V13C7.9001 12.1163 7.18375 11.4 6.3001 11.4H4.7001ZM11.1001 13V16.2C11.1001 17.0837 11.8164 17.8 12.7001 17.8C13.5838 17.8 14.3001 17.0837 14.3001 16.2V13C14.3001 12.1163 13.5838 11.4 12.7001 11.4C11.8164 11.4 11.1001 12.1163 11.1001 13Z" stroke="#676D75" stroke-width="2"/>
</svg>
