<svg width="86" height="86" viewBox="0 0 86 86" fill="none" xmlns="http://www.w3.org/2000/svg">
<path d="M3 51C3 35.916 3 28.372 7.688 23.688C12.372 19 19.916 19 35 19H51C66.084 19 73.628 19 78.312 23.688C83 28.372 83 35.916 83 51C83 66.084 83 73.628 78.312 78.312C73.628 83 66.084 83 51 83H35C19.916 83 12.372 83 7.688 78.312C3 73.628 3 66.084 3 51ZM59 19C59 11.456 59 7.688 56.656 5.344C54.312 3 50.544 3 43 3C35.456 3 31.688 3 29.344 5.344C27 7.688 27 11.456 27 19" fill="#22BC85"/>
<path d="M59 19C59 11.456 59 7.688 56.656 5.344C54.312 3 50.544 3 43 3C35.456 3 31.688 3 29.344 5.344C27 7.688 27 11.456 27 19M3 51C3 35.916 3 28.372 7.688 23.688C12.372 19 19.916 19 35 19H51C66.084 19 73.628 19 78.312 23.688C83 28.372 83 35.916 83 51C83 66.084 83 73.628 78.312 78.312C73.628 83 66.084 83 51 83H35C19.916 83 12.372 83 7.688 78.312C3 73.628 3 66.084 3 51Z" stroke="white" stroke-width="5"/>
<path d="M43 64.332C47.42 64.332 51 61.348 51 57.668C51 53.988 47.42 51 43 51C38.58 51 35 48.016 35 44.332C35 40.652 38.58 37.668 43 37.668M43 64.332C38.58 64.332 35 61.348 35 57.668M43 64.332V67M43 37.668V35M43 37.668C47.42 37.668 51 40.652 51 44.332" stroke="white" stroke-width="5" stroke-linecap="round"/>
</svg>
