<svg width="74" height="80" viewBox="0 0 74 80" fill="none" xmlns="http://www.w3.org/2000/svg">
<path d="M69.7656 18.2305L37 0L4.23445 18.2305L25.0778 29.7942C28.0789 26.6667 32.3133 24.6914 37 24.6914C41.6867 24.6914 45.9211 26.6667 48.9222 29.7942L69.7656 18.2305ZM28.7778 41.1523C28.7778 36.6255 32.4778 32.9218 37 32.9218C41.5222 32.9218 45.2222 36.6255 45.2222 41.1523C45.2222 45.679 41.5222 49.3827 37 49.3827C32.4778 49.3827 28.7778 45.679 28.7778 41.1523ZM32.8889 80L0 61.7284V25.2675L21.09 36.9959C20.72 38.3128 20.5556 39.7119 20.5556 41.1523C20.5556 48.8066 25.7767 55.2675 32.8889 57.0782V80ZM41.1111 80V57.0782C48.2233 55.2675 53.4444 48.8066 53.4444 41.1523C53.4444 39.7119 53.28 38.3128 52.91 36.9959L74 25.2675V61.7284L41.1111 80Z" fill="#22BC85"/>
</svg>
