<svg width="29" height="28" viewBox="0 0 29 28" fill="none" xmlns="http://www.w3.org/2000/svg">
<path d="M14.4855 27.9911C16.1437 27.9911 17.7392 27.6971 19.272 27.109C20.8145 26.5306 22.2172 25.7015 23.4801 24.6218L13.7191 15.0489C13.5938 14.9332 13.507 14.8127 13.4588 14.6873C13.4203 14.562 13.401 14.4078 13.401 14.2246V0.327935C11.6368 0.472542 9.97865 0.930462 8.42654 1.7017C6.88407 2.47293 5.52959 3.48517 4.3631 4.73843C3.19661 5.99169 2.28077 7.42329 1.61558 9.03324C0.960027 10.6336 0.632253 12.3351 0.632253 14.1378C0.632253 16.0274 0.993769 17.8108 1.7168 19.4883C2.44947 21.1561 3.45208 22.6311 4.72461 23.9132C5.99715 25.1858 7.46731 26.1836 9.13511 26.9066C10.8029 27.6296 12.5864 27.9911 14.4855 27.9911ZM28.3388 14.1234C28.3388 13.1015 28.2183 12.0796 27.9773 11.0577C27.7363 10.0262 27.3989 9.07662 26.9651 8.20898L15.8015 14.6006L24.7092 23.4216C25.8371 22.1972 26.7241 20.7801 27.37 19.1701C28.0159 17.5506 28.3388 15.8683 28.3388 14.1234ZM15.0784 13.0678L26.1408 6.734C25.3503 5.46146 24.3622 4.35281 23.1764 3.40805C22.0003 2.46329 20.7133 1.7258 19.3154 1.19557C17.9272 0.65571 16.5149 0.356857 15.0784 0.299014V13.0678Z" fill="white"/>
</svg>
