<svg width="103" height="71" viewBox="0 0 103 71" fill="none" xmlns="http://www.w3.org/2000/svg">
<path d="M51.4855 31.9911C53.1437 31.9911 54.7392 31.6971 56.272 31.109C57.8145 30.5306 59.2172 29.7015 60.4801 28.6218L50.7191 19.0489C50.5938 18.9332 50.507 18.8127 50.4588 18.6873C50.4203 18.562 50.401 18.4078 50.401 18.2246V4.32794C48.6368 4.47254 46.9786 4.93046 45.4265 5.7017C43.8841 6.47293 42.5296 7.48517 41.3631 8.73843C40.1966 9.99169 39.2808 11.4233 38.6156 13.0332C37.96 14.6336 37.6323 16.3351 37.6323 18.1378C37.6323 20.0274 37.9938 21.8108 38.7168 23.4883C39.4495 25.1561 40.4521 26.6311 41.7246 27.9132C42.9971 29.1858 44.4673 30.1836 46.1351 30.9066C47.8029 31.6296 49.5864 31.9911 51.4855 31.9911ZM65.3388 18.1234C65.3388 17.1015 65.2183 16.0796 64.9773 15.0577C64.7363 14.0262 64.3989 13.0766 63.9651 12.209L52.8015 18.6006L61.7092 27.4216C62.8371 26.1972 63.7241 24.7801 64.37 23.1701C65.0159 21.5506 65.3388 19.8683 65.3388 18.1234ZM52.0784 17.0678L63.1408 10.734C62.3503 9.46146 61.3622 8.35281 60.1764 7.40805C59.0003 6.46329 57.7133 5.7258 56.3154 5.19557C54.9272 4.65571 53.5149 4.35686 52.0784 4.29901V17.0678Z" fill="white"/>
<path d="M1.12305 62.3184H2.90039C3.01107 63.054 3.39193 63.64 4.04297 64.0762C4.69401 64.5124 5.52083 64.7305 6.52344 64.7305C7.47396 64.7305 8.25846 64.5026 8.87695 64.0469C9.50195 63.5846 9.81445 63.0052 9.81445 62.3086C9.81445 61.7096 9.58659 61.2148 9.13086 60.8242C8.67513 60.4271 7.96224 60.1048 6.99219 59.8574L5.18555 59.3887C3.90951 59.0697 2.98177 58.6074 2.40234 58.002C1.82292 57.3965 1.5332 56.5924 1.5332 55.5898C1.5332 54.3919 1.98893 53.4251 2.90039 52.6895C3.81836 51.9473 5.02279 51.5762 6.51367 51.5762C7.87435 51.5762 9.01367 51.9408 9.93164 52.6699C10.8496 53.3991 11.3444 54.3333 11.416 55.4727H9.64844C9.52474 54.75 9.17969 54.1868 8.61328 53.7832C8.05339 53.373 7.33398 53.168 6.45508 53.168C5.51758 53.168 4.76237 53.3861 4.18945 53.8223C3.62305 54.252 3.33984 54.8216 3.33984 55.5312C3.33984 56.0846 3.54818 56.5339 3.96484 56.8789C4.38802 57.224 5.08464 57.5202 6.05469 57.7676L7.5293 58.1582C8.98763 58.5228 10.0326 59.0111 10.6641 59.623C11.3021 60.235 11.6211 61.0586 11.6211 62.0938C11.6211 63.3893 11.1458 64.4212 10.1953 65.1895C9.24479 65.9512 7.96549 66.332 6.35742 66.332C4.86654 66.332 3.64258 65.9674 2.68555 65.2383C1.73503 64.5091 1.21419 63.5358 1.12305 62.3184ZM19.9707 66H18.2129V53.4902H13.6719V51.9082H24.5117V53.4902H19.9707V66ZM28.9844 53.4707V58.8613H32.4512C33.3561 58.8613 34.0527 58.6302 34.541 58.168C35.0358 57.6992 35.2832 57.0319 35.2832 56.166C35.2832 55.3197 35.026 54.6589 34.5117 54.1836C33.9974 53.7083 33.2845 53.4707 32.373 53.4707H28.9844ZM28.9844 60.4238V66H27.2266V51.9082H32.6074C33.9681 51.9082 35.0553 52.2923 35.8691 53.0605C36.6895 53.8223 37.0996 54.8379 37.0996 56.1074C37.0996 57.0905 36.849 57.9401 36.3477 58.6562C35.8464 59.3724 35.153 59.8704 34.2676 60.1504L37.5293 66H35.4688L32.4512 60.4238H28.9844ZM49.4531 66L48.0371 61.9668H42.4316L41.0156 66H39.1699L44.3652 51.9082H46.1035L51.2988 66H49.4531ZM45.1562 54.1836L42.9492 60.4727H47.5195L45.3125 54.1836H45.1562ZM57.5293 66H55.7715V53.4902H51.2305V51.9082H62.0703V53.4902H57.5293V66ZM73.5156 64.418V66H64.7852V51.9082H73.5156V53.4902H66.543V58.0117H73.1543V59.5742H66.543V64.418H73.5156ZM88.5254 60.5508C88.5254 62.2891 87.9785 63.6888 86.8848 64.75C85.791 65.8047 84.3424 66.332 82.5391 66.332C80.5924 66.332 79.0397 65.6647 77.8809 64.3301C76.7285 62.9954 76.1523 61.2018 76.1523 58.9492C76.1523 56.7227 76.735 54.9388 77.9004 53.5977C79.0658 52.25 80.612 51.5762 82.5391 51.5762C84.1016 51.5762 85.4102 51.9831 86.4648 52.7969C87.526 53.6107 88.1836 54.7142 88.4375 56.1074H86.6504C86.3444 55.1569 85.8431 54.4342 85.1465 53.9395C84.4499 53.4447 83.5807 53.1973 82.5391 53.1973C81.1458 53.1973 80.0326 53.7181 79.1992 54.7598C78.3724 55.8014 77.959 57.1979 77.959 58.9492C77.959 60.7266 78.3691 62.1328 79.1895 63.168C80.0163 64.1966 81.1361 64.7109 82.5488 64.7109C83.8118 64.7109 84.8307 64.3431 85.6055 63.6074C86.3867 62.8717 86.7773 61.9082 86.7773 60.7168V60.375H82.8125V58.832H88.5254V60.5508ZM96.9922 66H95.2344V59.9355L90.2344 51.9082H92.2363L96.0352 58.168H96.1914L99.9902 51.9082H101.992L96.9922 59.9355V66Z" fill="white"/>
</svg>
