<svg width="96" height="71" viewBox="0 0 96 71" fill="none" xmlns="http://www.w3.org/2000/svg">
<path d="M65.0636 12.021L51.6441 5.87523C50.9403 5.55709 50.2944 5.32572 49.7064 5.18111C49.1183 5.03651 48.5495 4.96903 48 4.97867C47.4409 4.96903 46.8672 5.03651 46.2792 5.18111C45.7008 5.32572 45.0645 5.55709 44.3704 5.87523L30.922 12.021C30.5074 12.2138 30.199 12.4645 29.9965 12.7729C29.7941 13.0814 29.6928 13.4044 29.6928 13.7418C29.6928 14.0792 29.7941 14.4022 29.9965 14.7107C30.199 15.0095 30.5074 15.2554 30.922 15.4482L36.8075 18.1234L45.3103 14.0889C45.2139 13.9732 45.1657 13.8575 45.1657 13.7418C45.1657 13.4622 45.3007 13.2116 45.5706 12.9899C45.8502 12.7681 46.2069 12.5946 46.6407 12.4693C47.0842 12.3343 47.5517 12.2668 48.0434 12.2668C48.535 12.2668 48.9978 12.3343 49.4316 12.4693C49.8654 12.5946 50.2173 12.7681 50.4872 12.9899C50.7572 13.2116 50.8921 13.4622 50.8921 13.7418C50.8921 14.0117 50.7572 14.2624 50.4872 14.4938C50.2173 14.7251 49.8654 14.9083 49.4316 15.0433C48.9978 15.1782 48.535 15.2457 48.0434 15.2457C47.571 15.2457 47.1227 15.1831 46.6985 15.0577L38.5427 18.9332L44.3704 21.6084C45.0741 21.9265 45.7152 22.1579 46.2936 22.3025C46.8721 22.4471 47.4409 22.5146 48 22.505C48.5495 22.5146 49.1183 22.4471 49.7064 22.3025C50.2944 22.1579 50.9403 21.9265 51.6441 21.6084L65.0636 15.4482C65.4781 15.2554 65.7866 15.0095 65.989 14.7107C66.1915 14.4022 66.2927 14.0792 66.2927 13.7418C66.2927 13.4044 66.1915 13.0814 65.989 12.7729C65.7866 12.4645 65.4781 12.2138 65.0636 12.021ZM38.4994 20.8564V29.1135C39.6273 29.7979 40.9914 30.3426 42.5917 30.7475C44.2017 31.1524 46.0044 31.3549 48 31.3549C49.9956 31.3549 51.7983 31.1572 53.4083 30.762C55.0182 30.3667 56.392 29.822 57.5296 29.1279C58.6768 28.4435 59.554 27.6626 60.1614 26.7853C60.7687 25.8984 61.0724 24.9681 61.0724 23.9944V19.1935L52.3527 23.1991C50.7716 23.9317 49.3207 24.2884 48 24.2692C46.6696 24.2884 45.2139 23.9317 43.6329 23.1991L38.4994 20.8564ZM34.9131 19.2079V23.9944C34.9131 24.5825 35.077 25.2187 35.4048 25.9032C35.7422 26.578 36.229 27.2239 36.8653 27.8409V20.1045L34.9131 19.2079ZM36.8653 32.1357H38.4994V29.1135C38.1812 28.9207 37.8824 28.7182 37.6028 28.5061C37.3329 28.3037 37.087 28.0819 36.8653 27.8409V32.1357ZM35.7952 32.2225V35.8377C35.7952 36.3582 35.9495 36.768 36.258 37.0668C36.5665 37.3753 36.9762 37.5296 37.4871 37.5296H37.8631C38.374 37.5296 38.7838 37.3753 39.0922 37.0668C39.4007 36.768 39.555 36.3582 39.555 35.8377V32.2225C39.555 31.7019 39.4007 31.2874 39.0922 30.9789C38.7838 30.68 38.374 30.5306 37.8631 30.5306H37.4871C36.9762 30.5306 36.5665 30.68 36.258 30.9789C35.9495 31.2874 35.7952 31.7019 35.7952 32.2225Z" fill="white"/>
<path d="M7.4707 66.332C5.55664 66.332 4.03971 65.6712 2.91992 64.3496C1.80664 63.028 1.25 61.2311 1.25 58.959C1.25 56.6868 1.80664 54.89 2.91992 53.5684C4.0332 52.2402 5.54688 51.5762 7.46094 51.5762C8.94531 51.5762 10.2148 51.9993 11.2695 52.8457C12.3242 53.6921 12.9557 54.7956 13.1641 56.1562H11.377C11.1426 55.2448 10.6738 54.5254 9.9707 53.998C9.26758 53.4642 8.43099 53.1973 7.46094 53.1973C6.10677 53.1973 5.03255 53.7148 4.23828 54.75C3.45052 55.7852 3.05664 57.1882 3.05664 58.959C3.05664 60.7298 3.45378 62.1328 4.24805 63.168C5.04232 64.1966 6.11654 64.7109 7.4707 64.7109C8.45378 64.7109 9.29362 64.4766 9.99023 64.0078C10.6934 63.5326 11.1556 62.888 11.377 62.0742H13.1641C12.9297 63.3698 12.2949 64.4049 11.2598 65.1797C10.2311 65.9479 8.9681 66.332 7.4707 66.332ZM22.041 51.5762C24.0397 51.5762 25.612 52.2402 26.7578 53.5684C27.9102 54.89 28.4863 56.6836 28.4863 58.9492C28.4863 61.2148 27.9102 63.0117 26.7578 64.3398C25.612 65.668 24.0397 66.332 22.041 66.332C20.0293 66.332 18.4473 65.668 17.2949 64.3398C16.1426 63.0117 15.5664 61.2148 15.5664 58.9492C15.5664 56.6836 16.1458 54.89 17.3047 53.5684C18.4701 52.2402 20.0488 51.5762 22.041 51.5762ZM22.041 53.1973C20.6087 53.1973 19.4727 53.7148 18.6328 54.75C17.793 55.7852 17.373 57.1849 17.373 58.9492C17.373 60.7135 17.7865 62.1165 18.6133 63.1582C19.4466 64.1934 20.5892 64.7109 22.041 64.7109C23.4798 64.7109 24.6126 64.1901 25.4395 63.1484C26.2663 62.1068 26.6797 60.707 26.6797 58.9492C26.6797 57.1784 26.2663 55.7786 25.4395 54.75C24.6126 53.7148 23.4798 53.1973 22.041 53.1973ZM33.3496 51.9082V61.0391C33.3496 62.1263 33.6882 63.0117 34.3652 63.6953C35.0488 64.3724 35.9896 64.7109 37.1875 64.7109C38.3854 64.7109 39.3229 64.3724 40 63.6953C40.6836 63.0117 41.0254 62.1263 41.0254 61.0391V51.9082H42.7832V61.1562C42.7832 62.6862 42.2786 63.9329 41.2695 64.8965C40.2669 65.8535 38.9062 66.332 37.1875 66.332C35.4688 66.332 34.1048 65.8535 33.0957 64.8965C32.0931 63.9329 31.5918 62.6862 31.5918 61.1562V51.9082H33.3496ZM48.1836 53.4707V58.8613H51.6504C52.5553 58.8613 53.252 58.6302 53.7402 58.168C54.235 57.6992 54.4824 57.0319 54.4824 56.166C54.4824 55.3197 54.2253 54.6589 53.7109 54.1836C53.1966 53.7083 52.4837 53.4707 51.5723 53.4707H48.1836ZM48.1836 60.4238V66H46.4258V51.9082H51.8066C53.1673 51.9082 54.2546 52.2923 55.0684 53.0605C55.8887 53.8223 56.2988 54.8379 56.2988 56.1074C56.2988 57.0905 56.0482 57.9401 55.5469 58.6562C55.0456 59.3724 54.3522 59.8704 53.4668 60.1504L56.7285 66H54.668L51.6504 60.4238H48.1836ZM58.8184 62.3184H60.5957C60.7064 63.054 61.0872 63.64 61.7383 64.0762C62.3893 64.5124 63.2161 64.7305 64.2188 64.7305C65.1693 64.7305 65.9538 64.5026 66.5723 64.0469C67.1973 63.5846 67.5098 63.0052 67.5098 62.3086C67.5098 61.7096 67.2819 61.2148 66.8262 60.8242C66.3704 60.4271 65.6576 60.1048 64.6875 59.8574L62.8809 59.3887C61.6048 59.0697 60.6771 58.6074 60.0977 58.002C59.5182 57.3965 59.2285 56.5924 59.2285 55.5898C59.2285 54.3919 59.6842 53.4251 60.5957 52.6895C61.5137 51.9473 62.7181 51.5762 64.209 51.5762C65.5697 51.5762 66.709 51.9408 67.627 52.6699C68.5449 53.3991 69.0397 54.3333 69.1113 55.4727H67.3438C67.2201 54.75 66.875 54.1868 66.3086 53.7832C65.7487 53.373 65.0293 53.168 64.1504 53.168C63.2129 53.168 62.4577 53.3861 61.8848 53.8223C61.3184 54.252 61.0352 54.8216 61.0352 55.5312C61.0352 56.0846 61.2435 56.5339 61.6602 56.8789C62.0833 57.224 62.7799 57.5202 63.75 57.7676L65.2246 58.1582C66.6829 58.5228 67.7279 59.0111 68.3594 59.623C68.9974 60.235 69.3164 61.0586 69.3164 62.0938C69.3164 63.3893 68.8411 64.4212 67.8906 65.1895C66.9401 65.9512 65.6608 66.332 64.0527 66.332C62.5618 66.332 61.3379 65.9674 60.3809 65.2383C59.4303 64.5091 58.9095 63.5358 58.8184 62.3184ZM80.9766 64.418V66H72.2461V51.9082H80.9766V53.4902H74.0039V58.0117H80.6152V59.5742H74.0039V64.418H80.9766ZM83.4863 62.3184H85.2637C85.3743 63.054 85.7552 63.64 86.4062 64.0762C87.0573 64.5124 87.8841 64.7305 88.8867 64.7305C89.8372 64.7305 90.6217 64.5026 91.2402 64.0469C91.8652 63.5846 92.1777 63.0052 92.1777 62.3086C92.1777 61.7096 91.9499 61.2148 91.4941 60.8242C91.0384 60.4271 90.3255 60.1048 89.3555 59.8574L87.5488 59.3887C86.2728 59.0697 85.3451 58.6074 84.7656 58.002C84.1862 57.3965 83.8965 56.5924 83.8965 55.5898C83.8965 54.3919 84.3522 53.4251 85.2637 52.6895C86.1816 51.9473 87.3861 51.5762 88.877 51.5762C90.2376 51.5762 91.377 51.9408 92.2949 52.6699C93.2129 53.3991 93.7077 54.3333 93.7793 55.4727H92.0117C91.888 54.75 91.543 54.1868 90.9766 53.7832C90.4167 53.373 89.6973 53.168 88.8184 53.168C87.8809 53.168 87.1257 53.3861 86.5527 53.8223C85.9863 54.252 85.7031 54.8216 85.7031 55.5312C85.7031 56.0846 85.9115 56.5339 86.3281 56.8789C86.7513 57.224 87.4479 57.5202 88.418 57.7676L89.8926 58.1582C91.3509 58.5228 92.3958 59.0111 93.0273 59.623C93.6654 60.235 93.9844 61.0586 93.9844 62.0938C93.9844 63.3893 93.5091 64.4212 92.5586 65.1895C91.6081 65.9512 90.3288 66.332 88.7207 66.332C87.2298 66.332 86.0059 65.9674 85.0488 65.2383C84.0983 64.5091 83.5775 63.5358 83.4863 62.3184Z" fill="white"/>
</svg>
