<svg width="36" height="35" viewBox="0 0 36 35" fill="none" xmlns="http://www.w3.org/2000/svg">
<g clip-path="url(#clip0_88_303)">
<path d="M18.5 24.5C20.4833 24.5 22.6854 24.1062 25.1062 23.3188C27.5271 22.5312 31.1583 21.1458 36 19.1625V18.5063C36 17.0187 35.4021 15.8229 34.2062 14.9187C33.0104 14.0146 31.6979 13.7667 30.2688 14.175C29.7729 14.3208 29.2695 14.4958 28.7585 14.7C28.2475 14.9042 27.5697 15.1667 26.725 15.4875C24.9458 16.2458 23.4438 16.7708 22.2188 17.0625C20.9937 17.3542 19.7542 17.5 18.5 17.5C17.1875 17.5 15.9187 17.3472 14.6937 17.0415C13.4688 16.7358 11.9229 16.2032 10.0563 15.4437C9.35625 15.1521 8.75133 14.9117 8.2415 14.7227C7.73167 14.5338 7.24283 14.3658 6.775 14.2188C5.34583 13.7521 4.02633 13.9708 2.8165 14.875C1.60667 15.7792 1.00117 16.9896 1 18.5063V19.075C4.82083 20.825 8.175 22.1667 11.0625 23.1C13.95 24.0333 16.4292 24.5 18.5 24.5ZM18.5 35C22.525 35 26.0618 33.8987 29.1102 31.696C32.1587 29.4933 34.222 26.6717 35.3 23.2312C31.4792 24.8646 28.2708 26.068 25.675 26.8415C23.0792 27.615 20.6875 28.0012 18.5 28C16.2833 28 13.7528 27.5841 10.9085 26.7523C8.06417 25.9204 4.9655 24.7322 1.6125 23.1875C2.60417 26.775 4.60208 29.6409 7.60625 31.7852C10.6104 33.9296 14.2417 35.0012 18.5 35ZM18.5 14C16.575 14 14.9271 13.3146 13.5563 11.9437C12.1854 10.5729 11.5 8.925 11.5 7C11.5 5.075 12.1854 3.42708 13.5563 2.05625C14.9271 0.685417 16.575 0 18.5 0C20.425 0 22.0729 0.685417 23.4438 2.05625C24.8146 3.42708 25.5 5.075 25.5 7C25.5 8.925 24.8146 10.5729 23.4438 11.9437C22.0729 13.3146 20.425 14 18.5 14Z" fill="white"/>
</g>
<defs>
<clipPath id="clip0_88_303">
<rect width="35" height="35" fill="white" transform="translate(0.5)"/>
</clipPath>
</defs>
</svg>
