<svg width="38" height="34" viewBox="0 0 38 34" fill="none" xmlns="http://www.w3.org/2000/svg">
<path d="M36.0636 8.021L22.6441 1.87523C21.9403 1.55709 21.2944 1.32572 20.7064 1.18111C20.1183 1.03651 19.5495 0.969025 19 0.978666C18.4409 0.969025 17.8672 1.03651 17.2792 1.18111C16.7008 1.32572 16.0645 1.55709 15.3704 1.87523L1.92199 8.021C1.50745 8.2138 1.19895 8.46446 0.996505 8.77295C0.794056 9.08144 0.692832 9.4044 0.692832 9.74181C0.692832 10.0792 0.794056 10.4022 0.996505 10.7107C1.19895 11.0095 1.50745 11.2554 1.92199 11.4482L7.80747 14.1234L16.3103 10.0889C16.2139 9.97318 16.1657 9.8575 16.1657 9.74181C16.1657 9.46224 16.3007 9.21159 16.5706 8.98986C16.8502 8.76813 17.2069 8.5946 17.6407 8.46928C18.0842 8.33431 18.5517 8.26683 19.0434 8.26683C19.535 8.26683 19.9978 8.33431 20.4316 8.46928C20.8654 8.5946 21.2173 8.76813 21.4872 8.98986C21.7572 9.21159 21.8921 9.46224 21.8921 9.74181C21.8921 10.0117 21.7572 10.2624 21.4872 10.4938C21.2173 10.7251 20.8654 10.9083 20.4316 11.0433C19.9978 11.1782 19.535 11.2457 19.0434 11.2457C18.571 11.2457 18.1227 11.1831 17.6985 11.0577L9.54274 14.9332L15.3704 17.6084C16.0741 17.9265 16.7152 18.1579 17.2936 18.3025C17.8721 18.4471 18.4409 18.5146 19 18.505C19.5495 18.5146 20.1183 18.4471 20.7064 18.3025C21.2944 18.1579 21.9403 17.9265 22.6441 17.6084L36.0636 11.4482C36.4781 11.2554 36.7866 11.0095 36.989 10.7107C37.1915 10.4022 37.2927 10.0792 37.2927 9.74181C37.2927 9.4044 37.1915 9.08144 36.989 8.77295C36.7866 8.46446 36.4781 8.2138 36.0636 8.021ZM9.49936 16.8564V25.1135C10.6273 25.7979 11.9914 26.3426 13.5917 26.7475C15.2017 27.1524 17.0044 27.3549 19 27.3549C20.9956 27.3549 22.7983 27.1572 24.4083 26.762C26.0182 26.3667 27.392 25.822 28.5296 25.1279C29.6768 24.4435 30.554 23.6626 31.1614 22.7853C31.7687 21.8984 32.0724 20.9681 32.0724 19.9944V15.1935L23.3527 19.1991C21.7716 19.9317 20.3207 20.2884 19 20.2692C17.6696 20.2884 16.2139 19.9317 14.6329 19.1991L9.49936 16.8564ZM5.91312 15.2079V19.9944C5.91312 20.5825 6.07701 21.2187 6.40478 21.9032C6.7422 22.578 7.22904 23.2239 7.86531 23.8409V16.1045L5.91312 15.2079ZM7.86531 28.1357H9.49936V25.1135C9.18123 24.9207 8.88237 24.7182 8.6028 24.5061C8.33287 24.3037 8.08704 24.0819 7.86531 23.8409V28.1357ZM6.79522 28.2225V31.8377C6.79522 32.3582 6.94947 32.768 7.25796 33.0668C7.56645 33.3753 7.97617 33.5296 8.48712 33.5296H8.86309C9.37403 33.5296 9.78375 33.3753 10.0922 33.0668C10.4007 32.768 10.555 32.3582 10.555 31.8377V28.2225C10.555 27.7019 10.4007 27.2874 10.0922 26.9789C9.78375 26.68 9.37403 26.5306 8.86309 26.5306H8.48712C7.97617 26.5306 7.56645 26.68 7.25796 26.9789C6.94947 27.2874 6.79522 27.7019 6.79522 28.2225Z" fill="white"/>
</svg>
