<svg width="72" height="71" viewBox="0 0 72 71" fill="none" xmlns="http://www.w3.org/2000/svg">
<g clip-path="url(#clip0_6_758)">
<path d="M36.5 24.5C38.4833 24.5 40.6854 24.1062 43.1062 23.3188C45.5271 22.5312 49.1583 21.1458 54 19.1625V18.5063C54 17.0187 53.4021 15.8229 52.2062 14.9187C51.0104 14.0146 49.6979 13.7667 48.2688 14.175C47.7729 14.3208 47.2695 14.4958 46.7585 14.7C46.2475 14.9042 45.5697 15.1667 44.725 15.4875C42.9458 16.2458 41.4438 16.7708 40.2188 17.0625C38.9937 17.3542 37.7542 17.5 36.5 17.5C35.1875 17.5 33.9187 17.3472 32.6937 17.0415C31.4688 16.7358 29.9229 16.2032 28.0563 15.4437C27.3563 15.1521 26.7513 14.9117 26.2415 14.7227C25.7317 14.5338 25.2428 14.3658 24.775 14.2188C23.3458 13.7521 22.0263 13.9708 20.8165 14.875C19.6067 15.7792 19.0012 16.9896 19 18.5063V19.075C22.8208 20.825 26.175 22.1667 29.0625 23.1C31.95 24.0333 34.4292 24.5 36.5 24.5ZM36.5 35C40.525 35 44.0618 33.8987 47.1102 31.696C50.1587 29.4933 52.222 26.6717 53.3 23.2312C49.4792 24.8646 46.2708 26.068 43.675 26.8415C41.0792 27.615 38.6875 28.0012 36.5 28C34.2833 28 31.7528 27.5841 28.9085 26.7523C26.0642 25.9204 22.9655 24.7322 19.6125 23.1875C20.6042 26.775 22.6021 29.6409 25.6063 31.7852C28.6104 33.9296 32.2417 35.0012 36.5 35ZM36.5 14C34.575 14 32.9271 13.3146 31.5563 11.9437C30.1854 10.5729 29.5 8.925 29.5 7C29.5 5.075 30.1854 3.42708 31.5563 2.05625C32.9271 0.685417 34.575 0 36.5 0C38.425 0 40.0729 0.685417 41.4438 2.05625C42.8146 3.42708 43.5 5.075 43.5 7C43.5 8.925 42.8146 10.5729 41.4438 11.9437C40.0729 13.3146 38.425 14 36.5 14Z" fill="white"/>
</g>
<path d="M1.12305 62.3184H2.90039C3.01107 63.054 3.39193 63.64 4.04297 64.0762C4.69401 64.5124 5.52083 64.7305 6.52344 64.7305C7.47396 64.7305 8.25846 64.5026 8.87695 64.0469C9.50195 63.5846 9.81445 63.0052 9.81445 62.3086C9.81445 61.7096 9.58659 61.2148 9.13086 60.8242C8.67513 60.4271 7.96224 60.1048 6.99219 59.8574L5.18555 59.3887C3.90951 59.0697 2.98177 58.6074 2.40234 58.002C1.82292 57.3965 1.5332 56.5924 1.5332 55.5898C1.5332 54.3919 1.98893 53.4251 2.90039 52.6895C3.81836 51.9473 5.02279 51.5762 6.51367 51.5762C7.87435 51.5762 9.01367 51.9408 9.93164 52.6699C10.8496 53.3991 11.3444 54.3333 11.416 55.4727H9.64844C9.52474 54.75 9.17969 54.1868 8.61328 53.7832C8.05339 53.373 7.33398 53.168 6.45508 53.168C5.51758 53.168 4.76237 53.3861 4.18945 53.8223C3.62305 54.252 3.33984 54.8216 3.33984 55.5312C3.33984 56.0846 3.54818 56.5339 3.96484 56.8789C4.38802 57.224 5.08464 57.5202 6.05469 57.7676L7.5293 58.1582C8.98763 58.5228 10.0326 59.0111 10.6641 59.623C11.3021 60.235 11.6211 61.0586 11.6211 62.0938C11.6211 63.3893 11.1458 64.4212 10.1953 65.1895C9.24479 65.9512 7.96549 66.332 6.35742 66.332C4.86654 66.332 3.64258 65.9674 2.68555 65.2383C1.73503 64.5091 1.21419 63.5358 1.12305 62.3184ZM16.3086 66H14.5508V51.9082H16.3086V66ZM33.7891 66H32.1484V55.2383H32.0312L27.5879 65.9023H26.1035L21.6602 55.2383H21.543V66H19.9023V51.9082H21.9434L26.7676 63.5684H26.9238L31.748 51.9082H33.7891V66ZM37.3828 51.9082H42.7051C44.0397 51.9082 45.1237 52.3346 45.957 53.1875C46.7969 54.0339 47.2168 55.1276 47.2168 56.4688C47.2168 57.7839 46.7904 58.8646 45.9375 59.7109C45.0911 60.5508 44.0072 60.9707 42.6855 60.9707H39.1406V66H37.3828V51.9082ZM39.1406 53.4707V59.4082H42.2461C43.2487 59.4082 44.0267 59.151 44.5801 58.6367C45.1335 58.1224 45.4102 57.3997 45.4102 56.4688C45.4102 55.4987 45.1367 54.7565 44.5898 54.2422C44.0495 53.7279 43.2682 53.4707 42.2461 53.4707H39.1406ZM58.6523 64.418V66H50.0977V51.9082H51.8555V64.418H58.6523ZM70.1953 64.418V66H61.4648V51.9082H70.1953V53.4902H63.2227V58.0117H69.834V59.5742H63.2227V64.418H70.1953Z" fill="white"/>
<defs>
<clipPath id="clip0_6_758">
<rect width="35" height="35" fill="white" transform="translate(18.5)"/>
</clipPath>
</defs>
</svg>
