<svg width="72" height="71" viewBox="0 0 72 71" fill="none" xmlns="http://www.w3.org/2000/svg">
<path d="M18.5 33.8333H53.5M31.3333 28V14M40.6667 28V7M50 28V0M22 21V28" stroke="white" stroke-width="2"/>
<path d="M3.55469 66H1.79688V51.9082H3.55469V66ZM8.88672 66H7.14844V51.9082H8.85742L16.5039 62.875H16.6602V51.9082H18.3984V66H16.6895L9.04297 55.0723H8.88672V66ZM27.8027 66H26.0645L20.8691 51.9082H22.7148L26.8555 63.7246H27.0117L31.1523 51.9082H32.998L27.8027 66ZM44.1992 64.418V66H35.4688V51.9082H44.1992V53.4902H37.2266V58.0117H43.8379V59.5742H37.2266V64.418H44.1992ZM46.709 62.3184H48.4863C48.597 63.054 48.9779 63.64 49.6289 64.0762C50.2799 64.5124 51.1068 64.7305 52.1094 64.7305C53.0599 64.7305 53.8444 64.5026 54.4629 64.0469C55.0879 63.5846 55.4004 63.0052 55.4004 62.3086C55.4004 61.7096 55.1725 61.2148 54.7168 60.8242C54.2611 60.4271 53.5482 60.1048 52.5781 59.8574L50.7715 59.3887C49.4954 59.0697 48.5677 58.6074 47.9883 58.002C47.4089 57.3965 47.1191 56.5924 47.1191 55.5898C47.1191 54.3919 47.5749 53.4251 48.4863 52.6895C49.4043 51.9473 50.6087 51.5762 52.0996 51.5762C53.4603 51.5762 54.5996 51.9408 55.5176 52.6699C56.4355 53.3991 56.9303 54.3333 57.002 55.4727H55.2344C55.1107 54.75 54.7656 54.1868 54.1992 53.7832C53.6393 53.373 52.9199 53.168 52.041 53.168C51.1035 53.168 50.3483 53.3861 49.7754 53.8223C49.209 54.252 48.9258 54.8216 48.9258 55.5312C48.9258 56.0846 49.1341 56.5339 49.5508 56.8789C49.974 57.224 50.6706 57.5202 51.6406 57.7676L53.1152 58.1582C54.5736 58.5228 55.6185 59.0111 56.25 59.623C56.888 60.235 57.207 61.0586 57.207 62.0938C57.207 63.3893 56.7318 64.4212 55.7812 65.1895C54.8307 65.9512 53.5514 66.332 51.9434 66.332C50.4525 66.332 49.2285 65.9674 48.2715 65.2383C47.321 64.5091 46.8001 63.5358 46.709 62.3184ZM65.5566 66H63.7988V53.4902H59.2578V51.9082H70.0977V53.4902H65.5566V66Z" fill="white"/>
</svg>
