<svg width="100" height="100" viewBox="0 0 100 100" fill="none" xmlns="http://www.w3.org/2000/svg">
<path d="M85.9375 77.6367C88.0859 78.7109 90.0228 80.0293 91.748 81.5918C93.4733 83.1543 94.9381 84.8958 96.1426 86.8164C97.347 88.737 98.291 90.8203 98.9746 93.0664C99.6582 95.3125 100 97.6237 100 100H93.75C93.75 97.4284 93.2617 95.0033 92.2852 92.7246C91.3086 90.446 89.974 88.4603 88.2812 86.7676C86.5885 85.0749 84.5866 83.724 82.2754 82.7148C79.9642 81.7057 77.5391 81.2174 75 81.25C72.3958 81.25 69.9707 81.7383 67.7246 82.7148C65.4785 83.6914 63.4928 85.026 61.7676 86.7188C60.0423 88.4115 58.6914 90.4134 57.7148 92.7246C56.7383 95.0358 56.25 97.4609 56.25 100H50C50 97.6237 50.3255 95.3125 50.9766 93.0664C51.6276 90.8203 52.5716 88.737 53.8086 86.8164C55.0456 84.8958 56.5267 83.1543 58.252 81.5918C59.9772 80.0293 61.9141 78.7109 64.0625 77.6367C61.6211 75.8789 59.7168 73.6816 58.3496 71.0449C56.9824 68.4082 56.2826 65.5599 56.25 62.5C56.25 59.9284 56.7383 57.5033 57.7148 55.2246C58.6914 52.946 60.026 50.9603 61.7188 49.2676C63.4115 47.5749 65.3971 46.224 67.6758 45.2148C69.9544 44.2057 72.3958 43.7174 75 43.75C77.5716 43.75 79.9967 44.2383 82.2754 45.2148C84.554 46.1914 86.5397 47.526 88.2324 49.2188C89.9251 50.9115 91.276 52.9134 92.2852 55.2246C93.2943 57.5358 93.7826 59.9609 93.75 62.5C93.75 65.5599 93.0664 68.4082 91.6992 71.0449C90.332 73.6816 88.4115 75.8789 85.9375 77.6367ZM75 75C76.7253 75 78.3366 74.6745 79.834 74.0234C81.3314 73.3724 82.666 72.4772 83.8379 71.3379C85.0098 70.1986 85.9049 68.8802 86.5234 67.3828C87.1419 65.8854 87.4674 64.2578 87.5 62.5C87.5 60.7747 87.1745 59.1634 86.5234 57.666C85.8724 56.1686 84.9772 54.834 83.8379 53.6621C82.6986 52.4902 81.3802 51.5951 79.8828 50.9766C78.3854 50.3581 76.7578 50.0326 75 50C73.2747 50 71.6634 50.3255 70.166 50.9766C68.6686 51.6276 67.334 52.5228 66.1621 53.6621C64.9902 54.8014 64.0951 56.1198 63.4766 57.6172C62.8581 59.1146 62.5326 60.7422 62.5 62.5C62.5 64.2253 62.8255 65.8366 63.4766 67.334C64.1276 68.8314 65.0228 70.166 66.1621 71.3379C67.3014 72.5098 68.6198 73.4049 70.1172 74.0234C71.6146 74.6419 73.2422 74.9674 75 75ZM50 78.9062C48.9583 80.1107 48.0143 81.3639 47.168 82.666C46.3216 83.9681 45.5729 85.3678 44.9219 86.8652C43.1966 85.0749 41.1133 83.6914 38.6719 82.7148C36.2305 81.7383 33.7565 81.25 31.25 81.25H12.5V18.75H6.25V87.5H44.6777C44.222 88.5091 43.8477 89.5345 43.5547 90.5762C43.2617 91.6178 43.0176 92.6758 42.8223 93.75H0V12.5H12.5V6.25H31.25C34.1146 6.25 36.8652 6.68945 39.502 7.56836C42.1387 8.44727 44.5964 9.76562 46.875 11.5234C49.1211 9.76562 51.5625 8.44727 54.1992 7.56836C56.8359 6.68945 59.6029 6.25 62.5 6.25H81.25V12.5H93.75V43.75C91.862 41.8945 89.7786 40.3483 87.5 39.1113V18.75H81.25V36.7676C80.2083 36.4746 79.1667 36.263 78.125 36.1328C77.0833 36.0026 76.0417 35.9375 75 35.9375V12.5H62.5C60.2214 12.5 58.0078 12.8906 55.8594 13.6719C53.7109 14.4531 51.7578 15.6087 50 17.1387V78.9062ZM43.75 78.2715V17.1387C41.9922 15.6413 40.0391 14.502 37.8906 13.7207C35.7422 12.9395 33.5286 12.5326 31.25 12.5H18.75V75H31.25C33.431 75 35.5794 75.2767 37.6953 75.8301C39.8112 76.3835 41.8294 77.1973 43.75 78.2715Z" fill="white"/>
</svg>
