<svg width="100" height="100" viewBox="0 0 100 100" fill="none" xmlns="http://www.w3.org/2000/svg">
<path d="M72.7664 27.1585C70.7236 22.6651 67.3964 18.877 63.2041 16.2715C59.0119 13.666 54.1421 12.3599 49.2087 12.5177C44.2752 12.6754 39.4989 14.2901 35.4817 17.1581C31.4644 20.0261 28.3861 24.0192 26.6346 28.6339C24.8832 33.2487 24.537 38.2787 25.6396 43.0899C26.7423 47.9011 29.2446 52.2782 32.831 55.6696C36.4174 59.061 40.9275 61.3148 45.7928 62.147C50.6581 62.9792 55.6608 62.3526 60.1706 60.346" stroke="white" stroke-width="5" stroke-linecap="round" stroke-linejoin="round"/>
<path d="M72.8415 72.7669C77.3349 70.7241 81.1231 67.3969 83.7285 63.2046C86.334 59.0123 87.6401 54.1426 87.4824 49.2092C87.3246 44.2757 85.7099 39.4994 82.8419 35.4822C79.9739 31.4649 75.9809 28.3866 71.3661 26.6351C66.7513 24.8836 61.7214 24.5374 56.9101 25.6401C52.0989 26.7428 47.7218 29.2451 44.3304 32.8315C40.9391 36.4179 38.6852 40.928 37.853 45.7933C37.0208 50.6586 37.6475 55.6613 39.654 60.1711" stroke="white" stroke-width="5" stroke-linecap="round" stroke-linejoin="round"/>
<path d="M27.25 72.8419C29.2924 77.3354 32.6193 81.1237 36.8113 83.7294C41.0033 86.3352 45.8728 87.6417 50.8062 87.4844C55.7396 87.327 60.516 85.7129 64.5334 82.8453C68.5509 79.9777 71.6296 75.9851 73.3815 71.3706C75.1334 66.7561 75.4802 61.7263 74.3781 56.915C73.276 52.1038 70.7744 47.7264 67.1885 44.3346C63.6026 40.9429 59.0929 38.6885 54.2278 37.8556C49.3627 37.0227 44.3599 37.6486 39.85 39.6544" stroke="white" stroke-width="5" stroke-linecap="round" stroke-linejoin="round"/>
<path d="M27.1581 27.25C22.6647 29.2924 18.8763 32.6193 16.2706 36.8113C13.6648 41.0033 12.3583 45.8728 12.5156 50.8062C12.673 55.7396 14.2872 60.516 17.1547 64.5334C20.0223 68.5509 24.0149 71.6296 28.6294 73.3815C33.2439 75.1334 38.2737 75.4802 43.085 74.3781C47.8963 73.276 52.2736 70.7744 55.6654 67.1885C59.0572 63.6026 61.3116 59.0929 62.1444 54.2278C62.9773 49.3627 62.3514 44.3599 60.3456 39.85" stroke="white" stroke-width="5" stroke-linecap="round" stroke-linejoin="round"/>
</svg>
