<svg width="100" height="100" viewBox="0 0 100 100" fill="none" xmlns="http://www.w3.org/2000/svg">
<path d="M25 28.125C22.5277 28.125 20.111 27.3919 18.0554 26.0184C15.9998 24.6449 14.3976 22.6926 13.4515 20.4085C12.5054 18.1245 12.2579 15.6111 12.7402 13.1864C13.2225 10.7616 14.413 8.53433 16.1612 6.78617C17.9093 5.03801 20.1366 3.8475 22.5614 3.36519C24.9861 2.88287 27.4995 3.13042 29.7835 4.07651C32.0676 5.02261 34.0199 6.62476 35.3934 8.68038C36.7669 10.736 37.5 13.1527 37.5 15.625C37.5 18.9402 36.183 22.1196 33.8388 24.4638C31.4946 26.808 28.3152 28.125 25 28.125ZM25 9.37501C23.7639 9.37501 22.5555 9.74156 21.5277 10.4283C20.4999 11.1151 19.6988 12.0912 19.2258 13.2332C18.7527 14.3753 18.6289 15.6319 18.8701 16.8443C19.1112 18.0567 19.7065 19.1703 20.5806 20.0444C21.4547 20.9185 22.5683 21.5138 23.7807 21.7549C24.9931 21.9961 26.2497 21.8723 27.3918 21.3993C28.5338 20.9262 29.5099 20.1251 30.1967 19.0973C30.8834 18.0695 31.25 16.8611 31.25 15.625C31.25 13.9674 30.5915 12.3777 29.4194 11.2056C28.2473 10.0335 26.6576 9.37501 25 9.37501ZM75 28.125C72.5277 28.125 70.111 27.3919 68.0554 26.0184C65.9998 24.6449 64.3976 22.6926 63.4515 20.4085C62.5054 18.1245 62.2579 15.6111 62.7402 13.1864C63.2225 10.7616 64.413 8.53433 66.1612 6.78617C67.9093 5.03801 70.1366 3.8475 72.5614 3.36519C74.9861 2.88287 77.4995 3.13042 79.7835 4.07651C82.0676 5.02261 84.0199 6.62476 85.3934 8.68038C86.7669 10.736 87.5 13.1527 87.5 15.625C87.5 18.9402 86.183 22.1196 83.8388 24.4638C81.4946 26.808 78.3152 28.125 75 28.125ZM75 9.37501C73.7639 9.37501 72.5555 9.74156 71.5277 10.4283C70.4999 11.1151 69.6988 12.0912 69.2258 13.2332C68.7527 14.3753 68.6289 15.6319 68.8701 16.8443C69.1112 18.0567 69.7065 19.1703 70.5806 20.0444C71.4547 20.9185 72.5683 21.5138 73.7807 21.7549C74.9931 21.9961 76.2497 21.8723 77.3918 21.3993C78.5338 20.9262 79.5099 20.1251 80.1967 19.0973C80.8834 18.0695 81.25 16.8611 81.25 15.625C81.25 13.9674 80.5915 12.3777 79.4194 11.2056C78.2473 10.0335 76.6576 9.37501 75 9.37501ZM81.25 93.75H68.75C67.0924 93.75 65.5027 93.0915 64.3306 91.9194C63.1585 90.7473 62.5 89.1576 62.5 87.5V65.625H68.75V87.5H81.25V59.375H87.5V40.625C87.5 39.7962 87.1708 39.0014 86.5847 38.4153C85.9987 37.8292 85.2038 37.5 84.375 37.5H64.3125L50 62.5L35.6875 37.5H15.625C14.7962 37.5 14.0013 37.8292 13.4153 38.4153C12.8292 39.0014 12.5 39.7962 12.5 40.625V59.375H18.75V87.5H31.25V65.625H37.5V87.5C37.5 89.1576 36.8415 90.7473 35.6694 91.9194C34.4973 93.0915 32.9076 93.75 31.25 93.75H18.75C17.0924 93.75 15.5027 93.0915 14.3306 91.9194C13.1585 90.7473 12.5 89.1576 12.5 87.5V65.625C10.8424 65.625 9.25268 64.9665 8.08058 63.7944C6.90848 62.6223 6.25 61.0326 6.25 59.375V40.625C6.25 38.1386 7.23772 35.754 8.99587 33.9959C10.754 32.2377 13.1386 31.25 15.625 31.25H39.3125L50 50L60.6875 31.25H84.375C86.8614 31.25 89.246 32.2377 91.0041 33.9959C92.7623 35.754 93.75 38.1386 93.75 40.625V59.375C93.75 61.0326 93.0915 62.6223 91.9194 63.7944C90.7473 64.9665 89.1576 65.625 87.5 65.625V87.5C87.5 89.1576 86.8415 90.7473 85.6694 91.9194C84.4973 93.0915 82.9076 93.75 81.25 93.75Z" fill="white"/>
</svg>
