<svg width="100" height="100" viewBox="0 0 100 100" fill="none" xmlns="http://www.w3.org/2000/svg">
<path d="M93.75 49.7266C93.75 49.5117 93.75 49.2676 93.7402 48.9844C93.7305 48.1934 93.7109 47.3047 93.6914 46.3574C93.6133 43.6328 93.4766 40.918 93.2617 38.3594C92.9688 34.834 92.5391 31.8945 91.9531 29.6875C91.3348 27.3843 90.1228 25.2837 88.4382 23.5957C86.7536 21.9077 84.6555 20.6914 82.3535 20.0684C79.5898 19.3262 74.1797 18.8672 66.5625 18.584C62.9394 18.4473 59.0625 18.3594 55.1855 18.3105C53.8281 18.291 52.5684 18.2812 51.4355 18.2715H48.5645C47.4316 18.2812 46.1719 18.291 44.8145 18.3105C40.9375 18.3594 37.0605 18.4473 33.4375 18.584C25.8203 18.877 20.4004 19.3359 17.6465 20.0684C15.3438 20.6898 13.2448 21.9056 11.56 23.5939C9.87518 25.2821 8.66367 27.3835 8.04688 29.6875C7.45117 31.8945 7.03125 34.834 6.73828 38.3594C6.52344 40.918 6.38672 43.6328 6.30859 46.3574C6.2793 47.3047 6.26953 48.1934 6.25977 48.9844C6.25977 49.2676 6.25 49.5117 6.25 49.7266V50.2734C6.25 50.4883 6.25 50.7324 6.25977 51.0156C6.26953 51.8066 6.28906 52.6953 6.30859 53.6426C6.38672 56.3672 6.52344 59.082 6.73828 61.6406C7.03125 65.166 7.46094 68.1055 8.04688 70.3125C9.29688 74.9902 12.9687 78.6816 17.6465 79.9316C20.4004 80.6738 25.8203 81.1328 33.4375 81.416C37.0605 81.5527 40.9375 81.6406 44.8145 81.6895C46.1719 81.709 47.4316 81.7188 48.5645 81.7285H51.4355C52.5684 81.7188 53.8281 81.709 55.1855 81.6895C59.0625 81.6406 62.9394 81.5527 66.5625 81.416C74.1797 81.123 79.5996 80.6641 82.3535 79.9316C87.0312 78.6816 90.7031 75 91.9531 70.3125C92.5488 68.1055 92.9688 65.166 93.2617 61.6406C93.4766 59.082 93.6133 56.3672 93.6914 53.6426C93.7207 52.6953 93.7305 51.8066 93.7402 51.0156C93.7402 50.7324 93.75 50.4883 93.75 50.2734V49.7266ZM86.7188 50.2344C86.7188 50.4395 86.7188 50.6641 86.709 50.9277C86.6992 51.6895 86.6797 52.5293 86.6602 53.4375C86.5918 56.0352 86.4551 58.6328 86.25 61.0449C85.9863 64.1894 85.6152 66.7676 85.1562 68.4961C84.5508 70.752 82.7734 72.5391 80.5273 73.1348C78.4766 73.6816 73.3105 74.1211 66.2891 74.3848C62.7344 74.5215 58.9062 74.6094 55.0879 74.6582C53.75 74.6777 52.5098 74.6875 51.3965 74.6875H48.6035L44.9121 74.6582C41.0938 74.6094 37.2754 74.5215 33.7109 74.3848C26.6895 74.1113 21.5137 73.6816 19.4727 73.1348C17.2266 72.5293 15.4492 70.752 14.8438 68.4961C14.3848 66.7676 14.0137 64.1894 13.75 61.0449C13.5449 58.6328 13.418 56.0352 13.3398 53.4375C13.3105 52.5293 13.3008 51.6797 13.291 50.9277C13.291 50.6641 13.2812 50.4297 13.2812 50.2344V49.7656C13.2812 49.5605 13.2813 49.3359 13.291 49.0723C13.3008 48.3105 13.3203 47.4707 13.3398 46.5625C13.4082 43.9648 13.5449 41.3672 13.75 38.9551C14.0137 35.8105 14.3848 33.2324 14.8438 31.5039C15.4492 29.248 17.2266 27.4609 19.4727 26.8652C21.5234 26.3184 26.6895 25.8789 33.7109 25.6152C37.2656 25.4785 41.0938 25.3906 44.9121 25.3418C46.25 25.3223 47.4902 25.3125 48.6035 25.3125H51.3965L55.0879 25.3418C58.9062 25.3906 62.7246 25.4785 66.2891 25.6152C73.3105 25.8887 78.4863 26.3184 80.5273 26.8652C82.7734 27.4707 84.5508 29.248 85.1562 31.5039C85.6152 33.2324 85.9863 35.8105 86.25 38.9551C86.4551 41.3672 86.582 43.9648 86.6602 46.5625C86.6895 47.4707 86.6992 48.3203 86.709 49.0723C86.709 49.3359 86.7188 49.5703 86.7188 49.7656V50.2344ZM41.3086 63.0859L63.9648 49.9023L41.3086 36.9141V63.0859Z" fill="white"/>
</svg>
