<svg width="100" height="100" viewBox="0 0 100 100" fill="none" xmlns="http://www.w3.org/2000/svg">
<path d="M25.0002 88.5417C25.0002 90.2708 26.4002 91.6667 28.1252 91.6667H65.3377C64.2107 91.2738 63.1976 90.6099 62.3877 89.7333L58.3335 85.4V85.4167H41.6668L41.6627 75.0083H45.8335V68.7583H17.7085L17.2835 68.7292C16.5354 68.6265 15.8497 68.2563 15.3534 67.6872C14.857 67.1181 14.5835 66.3885 14.5835 65.6333V21.875L14.6127 21.45C14.7154 20.7019 15.0855 20.0162 15.6546 19.5199C16.2237 19.0235 16.9533 18.75 17.7085 18.75H82.2877L82.7127 18.7792C83.4608 18.8819 84.1464 19.252 84.6428 19.8211C85.1392 20.3902 85.4126 21.1198 85.4127 21.875V50.0792C87.3877 49.7917 89.471 50.3125 91.1252 51.6917C91.3002 51.8375 91.4793 51.9958 91.6627 52.1625V21.875L91.6418 21.2333C91.4792 18.8634 90.423 16.6435 88.6866 15.0224C86.9502 13.4012 84.6632 12.4997 82.2877 12.5H17.7085L17.0668 12.5208C14.6969 12.6834 12.477 13.7396 10.8559 15.476C9.23473 17.2124 8.3332 19.4995 8.3335 21.875V65.6333L8.35433 66.275C8.51692 68.645 9.57314 70.8648 11.3095 72.486C13.0459 74.1071 15.333 75.0086 17.7085 75.0083H35.4127V85.4167H28.1252L27.7002 85.4458C26.952 85.5485 26.2664 85.9187 25.77 86.4878C25.2737 87.0569 25.0002 87.7865 25.0002 88.5417ZM92.2627 59.5917C90.896 57.3125 89.4918 55.7583 88.4585 54.8917C88.143 54.629 87.779 54.4311 87.387 54.3091C86.9951 54.1872 86.5829 54.1437 86.1742 54.181C85.7654 54.2183 85.368 54.3358 85.0046 54.5268C84.6413 54.7177 84.3191 54.9783 84.0564 55.2938C83.526 55.9308 83.2703 56.7525 83.3457 57.5781C83.4212 58.4036 83.8214 59.1654 84.4585 59.6958C84.9877 60.1333 85.9293 61.1792 86.9043 62.8083C88.5752 65.5958 89.5835 68.9542 89.5835 72.9167C89.5835 76.8833 88.5752 80.2417 86.9043 83.0292C85.9293 84.6542 84.9877 85.7042 84.4585 86.1417C83.8214 86.6721 83.4212 87.4339 83.3457 88.2594C83.2703 89.085 83.526 89.9067 84.0564 90.5437C84.5868 91.1808 85.3486 91.5811 86.1742 91.6565C86.9997 91.7319 87.8214 91.4763 88.4585 90.9458C89.4918 90.0833 90.896 88.525 92.2627 86.2458C94.496 82.5208 95.8335 78.0667 95.8335 72.9167C95.8335 67.7708 94.5002 63.3167 92.2627 59.5917ZM82.8085 64.1542C82.0496 62.9695 81.1008 61.9179 80.0002 61.0417C79.3371 60.5444 78.5037 60.3309 77.6832 60.4481C76.8627 60.5653 76.1224 61.0036 75.6252 61.6667C75.1279 62.3297 74.9144 63.1631 75.0316 63.9836C75.1488 64.8041 75.5871 65.5444 76.2502 66.0417C76.5085 66.2375 77.0418 66.7708 77.6085 67.6208C78.5835 69.0833 79.1668 70.8333 79.1668 72.9167C79.1668 75 78.5835 76.7542 77.6085 78.2167C77.237 78.8078 76.7792 79.3401 76.2502 79.7958L75.9002 80.1C75.344 80.6609 75.0209 81.4117 74.9959 82.2013C74.9708 82.9908 75.2458 83.7605 75.7653 84.3556C76.2848 84.9506 77.0104 85.3268 77.7961 85.4085C78.5818 85.4902 79.3693 85.2713 80.0002 84.7958C80.7877 84.2042 81.8127 83.1792 82.8085 81.6833C84.5367 79.0885 85.4454 76.0342 85.4168 72.9167C85.4168 69.5333 84.4377 66.5958 82.8085 64.1542ZM70.8335 61.4625C70.8332 60.8271 70.6392 60.2068 70.2773 59.6845C69.9155 59.1622 69.403 58.7625 68.8082 58.5389C68.2134 58.3153 67.5646 58.2784 66.9482 58.4329C66.3319 58.5875 65.7773 58.9263 65.3585 59.4042L59.0002 66.6667H53.1252C52.2964 66.6667 51.5015 66.9959 50.9155 67.582C50.3294 68.168 50.0002 68.9629 50.0002 69.7917V76.0417C50.0002 77.7708 51.4002 79.1667 53.1252 79.1667H59.0002L65.3585 86.4333C65.7773 86.9112 66.3319 87.25 66.9482 87.4046C67.5646 87.5591 68.2134 87.5222 68.8082 87.2986C69.403 87.0749 69.9155 86.6753 70.2773 86.153C70.6392 85.6307 70.8332 85.0104 70.8335 84.375V61.4583V61.4625Z" fill="white"/>
</svg>
