<svg width="100" height="100" viewBox="0 0 100 100" fill="none" xmlns="http://www.w3.org/2000/svg">
<path d="M56.25 46.875H43.75V34.375H37.5V46.875H25V53.125H37.5V65.625H43.75V53.125H56.25V46.875Z" fill="white"/>
<path d="M65.625 81.25H12.5C10.8429 81.2483 9.25415 80.5893 8.08241 79.4176C6.91067 78.2458 6.25165 76.6571 6.25 75V25C6.25165 23.3429 6.91067 21.7542 8.08241 20.5824C9.25415 19.4107 10.8429 18.7517 12.5 18.75H65.625C67.2821 18.7517 68.8708 19.4107 70.0426 20.5824C71.2143 21.7542 71.8733 23.3429 71.875 25V37.6781L88.8094 25.5844C89.2764 25.251 89.8263 25.0526 90.3987 25.011C90.971 24.9695 91.5438 25.0863 92.0541 25.3487C92.5644 25.6112 92.9927 26.0091 93.2918 26.4988C93.591 26.9885 93.7495 27.5511 93.75 28.125V71.875C93.7501 72.4491 93.5919 73.0122 93.293 73.5023C92.9941 73.9925 92.5659 74.3909 92.0555 74.6537C91.545 74.9165 90.9721 75.0336 90.3994 74.9921C89.8268 74.9507 89.2767 74.7523 88.8094 74.4187L71.875 62.325V75C71.8733 76.6571 71.2143 78.2458 70.0426 79.4176C68.8708 80.5893 67.2821 81.2483 65.625 81.25ZM12.5 25V75.0031L65.625 75V56.25C65.6249 55.6759 65.7831 55.1128 66.082 54.6227C66.3809 54.1325 66.8091 53.7341 67.3195 53.4713C67.83 53.2085 68.4029 53.0914 68.9756 53.1329C69.5482 53.1743 70.0983 53.3727 70.5656 53.7063L87.5 65.8V34.2L70.5656 46.2938C70.0983 46.6273 69.5482 46.8257 68.9756 46.8671C68.4029 46.9086 67.83 46.7915 67.3195 46.5287C66.8091 46.2659 66.3809 45.8675 66.082 45.3773C65.7831 44.8872 65.6249 44.3241 65.625 43.75V25H12.5Z" fill="white"/>
</svg>
