<svg width="54" height="67" viewBox="0 0 54 67" fill="none" xmlns="http://www.w3.org/2000/svg">
<path d="M49.7421 35.3025C50.8315 35.3025 51.9208 35.3025 52.9954 35.3025C53.2719 35.2757 53.5271 35.1638 53.7124 34.9878C53.8976 34.8119 54 34.5843 54 34.3487C54 34.1129 53.8976 33.8854 53.7124 33.7094C53.5271 33.5335 53.2719 33.4215 52.9954 33.3947H50.7726C43.265 32.9956 35.4334 29.5665 32.6659 23.4187C29.5303 16.423 28.8679 8.45467 28.8974 0.972661C28.8974 0.714696 28.7764 0.467295 28.561 0.284886C28.3457 0.102477 28.0537 0 27.749 0C27.4446 0 27.1526 0.102477 26.9372 0.284886C26.7219 0.467295 26.6009 0.714696 26.6009 0.972661C26.6009 3.26714 26.7628 5.56163 26.9836 7.84363C26.7775 9.48969 26.4978 11.1357 26.1297 12.7568C25.4972 16.2812 24.2363 19.7037 22.3907 22.9073C20.1724 26.3699 16.6847 29.1273 12.4541 30.7636C8.75912 32.1103 4.63725 32.3597 0.677327 32.9208C-0.3973 33.0706 -0.102881 34.492 0.927583 34.492C6.81595 34.492 14.1764 34.8162 18.2835 38.9313C19.5458 40.3066 20.5901 41.8158 21.3896 43.4205C23.1145 46.2376 24.4388 49.218 25.3348 52.2991C25.9747 54.9378 26.3734 57.6144 26.5273 60.305C26.5273 62.3251 26.6303 64.3328 26.7334 66.2781C26.7624 66.4774 26.8765 66.6607 27.0542 66.7936C27.2318 66.9265 27.4606 67 27.6975 67C27.9347 67 28.1635 66.9265 28.341 66.7936C28.5185 66.6607 28.6326 66.4774 28.6618 66.2781C28.6618 63.5597 28.6618 60.8287 28.3673 58.1102C28.3673 57.279 28.3968 56.4685 28.4557 55.6785C29.1564 51.078 31.0518 46.6659 34.0054 42.7596C35.5525 40.4522 37.8389 38.5628 40.6003 37.3104C43.4734 36.2448 46.5304 35.5794 49.6539 35.3399L49.7421 35.3025Z" fill="#2DBC83"/>
</svg>
