<svg width="50" height="50" viewBox="0 0 50 50" fill="none" xmlns="http://www.w3.org/2000/svg">
<path d="M5.10417 22.0313L13.8542 13.2813C14.3403 12.7951 14.9132 12.4479 15.5729 12.2396C16.2326 12.0313 16.9097 11.9965 17.6042 12.1354L20.3125 12.7083C18.4375 14.9306 16.9618 16.9444 15.8854 18.75C14.809 20.5556 13.7674 22.7431 12.7604 25.3125L5.10417 22.0313ZM15.7812 26.7708C16.5799 24.2708 17.6653 21.9097 19.0375 19.6875C20.4097 17.4653 22.0674 15.3819 24.0104 13.4375C27.066 10.3819 30.5555 8.09862 34.4792 6.5875C38.4028 5.07639 42.066 4.61667 45.4687 5.20834C46.059 8.61112 45.6076 12.2743 44.1146 16.1979C42.6215 20.1215 40.3472 23.6111 37.2917 26.6667C35.3819 28.5764 33.2986 30.2347 31.0417 31.6417C28.7847 33.0486 26.4062 34.1507 23.9062 34.9479L15.7812 26.7708ZM30.1562 20.5208C30.9549 21.3194 31.9361 21.7188 33.1 21.7188C34.2639 21.7188 35.2444 21.3194 36.0417 20.5208C36.8403 19.7222 37.2396 18.7417 37.2396 17.5792C37.2396 16.4167 36.8403 15.4354 36.0417 14.6354C35.243 13.8368 34.2618 13.4375 33.0979 13.4375C31.934 13.4375 30.9535 13.8368 30.1562 14.6354C29.3576 15.434 28.9583 16.4153 28.9583 17.5792C28.9583 18.7431 29.3576 19.7236 30.1562 20.5208ZM28.6979 45.5729L25.3646 37.9167C27.934 36.9097 30.1306 35.8681 31.9542 34.7917C33.7778 33.7153 35.8 32.2396 38.0208 30.3646L38.5417 33.0729C38.6806 33.7674 38.6458 34.4535 38.4375 35.1313C38.2292 35.809 37.8819 36.3903 37.3958 36.875L28.6979 45.5729ZM8.4375 33.4375C9.65278 32.2222 11.1285 31.6056 12.8646 31.5875C14.6007 31.5694 16.0764 32.1688 17.2917 33.3854C18.5069 34.6007 19.1146 36.0764 19.1146 37.8125C19.1146 39.5486 18.5069 41.0243 17.2917 42.2396C16.4236 43.1076 14.9743 43.8542 12.9437 44.4792C10.9132 45.1042 8.10903 45.6597 4.53125 46.1458C5.01736 42.5694 5.57292 39.7743 6.19792 37.7604C6.82292 35.7465 7.56944 34.3056 8.4375 33.4375Z" fill="url(#paint0_linear_150_416)"/>
<defs>
<linearGradient id="paint0_linear_150_416" x1="43.4432" y1="7.23478" x2="6.8087" y2="43.8707" gradientUnits="userSpaceOnUse">
<stop stop-color="#55C595"/>
<stop offset="1" stop-color="#359D9E"/>
</linearGradient>
</defs>
</svg>
