<svg width="50" height="50" viewBox="0 0 50 50" fill="none" xmlns="http://www.w3.org/2000/svg">
<path d="M35.1043 14.2708L38.1043 17.2708L27.9376 27.4375L21.0835 20.5833C20.8907 20.3902 20.6618 20.237 20.4098 20.1324C20.1577 20.0279 19.8876 19.9741 19.6147 19.9741C19.3419 19.9741 19.0717 20.0279 18.8197 20.1324C18.5676 20.237 18.3387 20.3902 18.146 20.5833L5.64597 33.1042C5.45309 33.297 5.30009 33.526 5.19571 33.778C5.09132 34.03 5.0376 34.3001 5.0376 34.5729C5.0376 34.8457 5.09132 35.1158 5.19571 35.3678C5.30009 35.6198 5.45309 35.8488 5.64597 36.0417C5.83885 36.2345 6.06783 36.3875 6.31984 36.4919C6.57185 36.5963 6.84195 36.65 7.11472 36.65C7.3875 36.65 7.6576 36.5963 7.90961 36.4919C8.16161 36.3875 8.39059 36.2345 8.58347 36.0417L19.6043 25L26.4585 31.8542C27.271 32.6667 28.5835 32.6667 29.396 31.8542L41.0418 20.2292L44.0418 23.2292C44.1874 23.3719 44.3717 23.4688 44.5718 23.5078C44.772 23.5468 44.9791 23.5262 45.1677 23.4486C45.3562 23.3709 45.5178 23.2397 45.6325 23.0711C45.7471 22.9024 45.8098 22.7039 45.8126 22.5V13.5417C45.8184 13.4051 45.796 13.2688 45.747 13.1412C45.698 13.0136 45.6234 12.8974 45.5277 12.7998C45.4321 12.7022 45.3174 12.6252 45.1908 12.5737C45.0643 12.5221 44.9284 12.497 44.7918 12.5H35.8543C35.6486 12.4988 35.4472 12.5585 35.2755 12.6716C35.1037 12.7846 34.9692 12.946 34.889 13.1354C34.8088 13.3248 34.7864 13.5336 34.8248 13.7357C34.8631 13.9378 34.9603 14.124 35.1043 14.2708Z" fill="url(#paint0_linear_150_429)"/>
<defs>
<linearGradient id="paint0_linear_150_429" x1="43.5599" y1="13.8344" x2="24.7229" y2="45.6395" gradientUnits="userSpaceOnUse">
<stop stop-color="#55C595"/>
<stop offset="1" stop-color="#359D9E"/>
</linearGradient>
</defs>
</svg>
