<svg width="343" height="321" viewBox="0 0 343 321" fill="none" xmlns="http://www.w3.org/2000/svg">
<path opacity="0.2" d="M208.558 165.469C193.269 171.407 176.562 172.679 160.55 169.125C144.538 165.571 129.939 157.35 118.6 145.501C107.262 133.653 99.6919 118.709 96.8485 102.56C94.0051 86.4112 96.0156 69.7819 102.626 54.7751C109.236 39.7683 120.149 27.0581 133.985 18.2516C147.821 9.44516 163.959 4.93797 180.357 5.3C196.755 5.66204 212.678 10.877 226.112 20.2856C239.545 29.6941 249.886 42.8736 255.828 58.1574C259.774 68.3062 261.682 79.1328 261.442 90.0188C261.202 100.905 258.819 111.637 254.429 121.602C250.04 131.567 243.73 140.57 235.859 148.097C227.988 155.624 218.711 161.527 208.558 165.469Z" fill="url(#paint0_linear_10_1354)"/>
<path opacity="0.1" d="M193.551 6.65328L128.504 154.336C127.502 153.578 126.51 152.793 125.535 151.999C119.248 146.8 113.773 140.691 109.291 133.875L165.476 6.31047C174.785 4.81169 184.282 4.92765 193.551 6.65328Z" fill="white"/>
<path opacity="0.1" d="M239.791 32.2748L178.634 171.125C165.931 171.139 153.395 168.231 141.995 162.627L208.775 11.002C220.606 15.6274 231.217 22.9051 239.791 32.2748Z" fill="white"/>
<path d="M110.248 32.3377C121.299 18.8388 136.105 8.919 152.796 3.8327C169.486 -1.2536 187.31 -1.27797 204.014 3.76268C220.718 8.80334 235.552 18.6826 246.64 32.1512C257.727 45.6198 264.571 62.0729 266.305 79.4297C268.039 96.7866 264.586 114.268 256.382 129.662C248.178 145.057 235.591 157.674 220.214 165.918C204.838 174.162 187.361 177.662 169.994 175.976C152.627 174.291 136.15 167.494 122.647 156.447C104.542 141.632 93.0646 120.234 90.7393 96.9592C88.4141 73.6849 95.4314 50.4402 110.248 32.3377ZM241.208 139.478C251.352 127.082 257.591 111.957 259.137 96.0168C260.683 80.0763 257.466 64.0355 249.892 49.9227C242.319 35.81 230.73 24.2591 216.59 16.7308C202.45 9.20238 186.395 6.03457 170.454 7.6279C154.514 9.22123 139.403 15.5041 127.035 25.6822C114.666 35.8602 105.593 49.4762 100.965 64.8086C96.3368 80.1409 96.3602 96.501 101.032 111.82C105.704 127.139 114.816 140.729 127.214 150.872C135.447 157.607 144.926 162.655 155.111 165.728C165.296 168.8 175.986 169.837 186.572 168.779C197.157 167.721 207.431 164.589 216.805 159.561C226.18 154.534 234.472 147.709 241.208 139.478Z" fill="url(#paint1_linear_10_1354)"/>
<path d="M248.996 139.171C257.687 144.358 265.953 150.06 274.075 155.942C282.197 161.824 290.111 167.95 297.899 174.238C305.687 180.526 313.33 186.994 320.703 193.787C324.397 197.179 328.007 200.662 331.532 204.234C335.07 207.843 338.544 211.452 341.82 215.367C342.577 216.273 342.994 217.415 343 218.596C343.006 219.777 342.6 220.923 341.852 221.837C341.105 222.751 340.062 223.376 338.903 223.604C337.744 223.833 336.542 223.651 335.503 223.089C330.991 220.654 326.767 217.965 322.553 215.214C318.339 212.462 314.224 209.593 310.163 206.643C302.041 200.761 294.181 194.563 286.483 188.167C278.785 181.771 271.205 175.23 263.832 168.428C256.459 161.626 249.231 154.661 242.427 147.173C241.577 146.247 241.09 145.046 241.054 143.789C241.019 142.533 241.438 141.306 242.234 140.334C243.03 139.362 244.15 138.709 245.389 138.495C246.628 138.281 247.902 138.521 248.978 139.171H248.996Z" fill="url(#paint2_linear_10_1354)"/>
<path d="M204.064 152.532C204.861 150.359 206.296 148.478 208.183 147.137C210.069 145.795 212.317 145.056 214.632 145.017H286.871C288.119 144.971 289.363 145.198 290.513 145.684C291.664 146.171 292.694 146.903 293.53 147.831C294.367 148.758 294.99 149.858 295.355 151.052C295.72 152.246 295.818 153.506 295.643 154.742L276.981 311.275C276.584 313.94 275.253 316.377 273.224 318.151C271.196 319.924 268.602 320.918 265.908 320.955H36.6909C35.4469 321.003 34.2076 320.777 33.0602 320.294C31.9128 319.811 30.8853 319.082 30.05 318.16C29.2146 317.237 28.5918 316.142 28.2252 314.953C27.8587 313.763 27.7573 312.508 27.9284 311.275L43.5765 179.759C43.9725 177.094 45.3039 174.657 47.3325 172.884C49.3611 171.11 51.9546 170.116 54.6493 170.079H179.383C184.788 169.987 190.038 168.261 194.444 165.129C198.849 161.998 202.203 157.606 204.064 152.532Z" fill="url(#paint3_linear_10_1354)"/>
<path d="M32.0525 313.746H271.566L285.211 152.64H45.7062L32.0525 313.746Z" fill="#F0F0F0"/>
<path d="M32.0525 313.746H271.566L281.439 152.64H45.7062L32.0525 313.746Z" fill="#E0E0E0"/>
<path d="M32.0525 313.747H271.566L279.796 147.525H40.2916L32.0525 313.747Z" fill="#F0F0F0"/>
<path d="M32.0525 313.747H271.566L274.824 147.525H40.2916L32.0525 313.747Z" fill="#E0E0E0"/>
<path d="M32.0525 313.746H271.566L272.992 143.014H33.4873L32.0525 313.746Z" fill="#F0F0F0"/>
<path d="M32.0525 313.747H271.566L266.648 146.244H28.6864L32.0525 313.747Z" fill="#E0E0E0"/>
<path d="M32.0524 313.747H271.566L264.455 147.525H24.9503L32.0524 313.747Z" fill="#F0F0F0"/>
<path d="M32.0525 313.747H271.566L260.24 150.033H20.736L32.0525 313.747Z" fill="#E0E0E0"/>
<path d="M32.0525 313.747H271.566L258.436 151.431H18.9311L32.0525 313.747Z" fill="#F0F0F0"/>
<path d="M151.994 162.698C152.008 161.652 152.232 160.618 152.653 159.66C153.074 158.701 153.684 157.838 154.446 157.12C155.208 156.402 156.106 155.844 157.088 155.481C158.07 155.117 159.115 154.955 160.161 155.003H232.401C235.197 155.11 237.88 156.143 240.026 157.939C242.172 159.735 243.661 162.193 244.258 164.927L272.802 311.076C273.867 316.552 270.294 321 264.816 321H35.599C30.1122 321 24.7699 316.552 23.7321 311.076L0.187708 190.593C-0.877157 185.117 2.69646 180.669 8.1742 180.669H132.917C143.746 180.669 151.624 173.218 151.994 162.698Z" fill="url(#paint4_linear_10_1354)"/>
<path opacity="0.2" d="M151.994 162.698C152.008 161.652 152.232 160.618 152.653 159.66C153.074 158.701 153.684 157.838 154.446 157.12C155.208 156.402 156.106 155.844 157.088 155.481C158.07 155.117 159.115 154.955 160.161 155.003H232.401C235.197 155.11 237.88 156.143 240.026 157.939C242.172 159.735 243.661 162.193 244.258 164.927L272.802 311.076C273.867 316.552 270.294 321 264.816 321H35.599C30.1122 321 24.7699 316.552 23.7321 311.076L0.187708 190.593C-0.877157 185.117 2.69646 180.669 8.1742 180.669H132.917C143.746 180.669 151.624 173.218 151.994 162.698Z" fill="#2D313F"/>
<defs>
<linearGradient id="paint0_linear_10_1354" x1="252.294" y1="14.4434" x2="104.807" y2="161.979" gradientUnits="userSpaceOnUse">
<stop stop-color="#55C595"/>
<stop offset="1" stop-color="#359D9E"/>
</linearGradient>
<linearGradient id="paint1_linear_10_1354" x1="256.99" y1="9.74793" x2="100.098" y2="166.686" gradientUnits="userSpaceOnUse">
<stop stop-color="#55C595"/>
<stop offset="1" stop-color="#359D9E"/>
</linearGradient>
<linearGradient id="paint2_linear_10_1354" x1="337.365" y1="143.132" x2="262.704" y2="232.386" gradientUnits="userSpaceOnUse">
<stop stop-color="#55C595"/>
<stop offset="1" stop-color="#359D9E"/>
</linearGradient>
<linearGradient id="paint3_linear_10_1354" x1="280.922" y1="154.735" x2="137.297" y2="373.402" gradientUnits="userSpaceOnUse">
<stop stop-color="#55C595"/>
<stop offset="1" stop-color="#359D9E"/>
</linearGradient>
<linearGradient id="paint4_linear_10_1354" x1="257.902" y1="164.169" x2="126.804" y2="379.759" gradientUnits="userSpaceOnUse">
<stop stop-color="#55C595"/>
<stop offset="1" stop-color="#359D9E"/>
</linearGradient>
</defs>
</svg>
