<svg width="280" height="360" viewBox="0 0 280 360" fill="none" xmlns="http://www.w3.org/2000/svg">
<path d="M12.8151 186.824L264.174 186.824C271.252 186.824 276.989 181.086 276.989 174.009V16.553C276.989 9.47539 271.252 3.73782 264.174 3.73782L12.8151 3.73782C5.73749 3.73782 -9.15527e-05 9.47539 -9.15527e-05 16.553V174.009C-9.15527e-05 181.086 5.73749 186.824 12.8151 186.824Z" fill="#263238"/>
<path d="M72.6833 354.318L133.417 293.617L134.912 292.133V112.069C134.912 111.429 135.166 110.815 135.619 110.362C136.071 109.909 136.685 109.655 137.325 109.655H139.675C140.315 109.655 140.929 109.909 141.381 110.362C141.834 110.815 142.088 111.429 142.088 112.069V292.101L143.573 293.585L204.284 354.318C204.478 354.51 204.631 354.738 204.735 354.989C204.84 355.24 204.894 355.509 204.894 355.781C204.894 356.053 204.84 356.323 204.735 356.574C204.631 356.825 204.478 357.053 204.284 357.244L202.149 359.38C201.761 359.764 201.237 359.98 200.691 359.98C200.145 359.98 199.621 359.764 199.233 359.38L142.088 302.235V357.586C142.088 358.226 141.834 358.84 141.381 359.293C140.929 359.745 140.315 360 139.675 360H137.325C137.005 360.005 136.686 359.947 136.388 359.828C136.091 359.71 135.82 359.533 135.591 359.308C135.362 359.083 135.181 358.815 135.057 358.52C134.933 358.224 134.869 357.907 134.869 357.586V302.257L77.7667 359.402C77.3705 359.774 76.8473 359.981 76.3036 359.981C75.7599 359.981 75.2366 359.774 74.8405 359.402L72.7047 357.266C72.3231 356.871 72.108 356.345 72.1041 355.796C72.1001 355.247 72.3075 354.718 72.6833 354.318Z" fill="#263238"/>
<path d="M245.496 0H237.391V1.06793H245.496V0Z" fill="url(#paint0_linear_103_616)"/>
<path d="M229.915 0H213.01V1.06793H229.915V0Z" fill="url(#paint1_linear_103_616)"/>
<path d="M15.4318 186.824L266.791 186.824C273.868 186.824 279.606 181.086 279.606 174.009V16.553C279.606 9.47539 273.868 3.73782 266.791 3.73782L15.4318 3.73782C8.35419 3.73782 2.61661 9.47539 2.61661 16.553V174.009C2.61661 181.086 8.35419 186.824 15.4318 186.824Z" fill="url(#paint2_linear_103_616)"/>
<path d="M272.13 173.998V16.5422C272.13 13.5932 269.739 11.2025 266.79 11.2025L15.4312 11.2025C12.4822 11.2025 10.0916 13.5932 10.0916 16.5422V173.998C10.0916 176.947 12.4822 179.338 15.4312 179.338L266.79 179.338C269.739 179.338 272.13 176.947 272.13 173.998Z" fill="#FAFAFA"/>
<path d="M131.473 294.503H145.527C147.397 294.503 148.913 292.988 148.913 291.118V281.517C148.913 279.648 147.397 278.132 145.527 278.132H131.473C129.604 278.132 128.088 279.648 128.088 281.517V291.118C128.088 292.988 129.604 294.503 131.473 294.503Z" fill="url(#paint3_linear_103_616)"/>
<path opacity="0.1" d="M107.626 151.785C117.131 151.785 126.422 148.967 134.325 143.686C142.228 138.406 148.388 130.9 152.025 122.119C155.662 113.338 156.614 103.675 154.76 94.3528C152.905 85.0306 148.328 76.4677 141.608 69.7468C134.887 63.026 126.324 58.449 117.002 56.5947C107.68 54.7404 98.0169 55.6921 89.2357 59.3294C80.4544 62.9667 72.9489 69.1263 67.6684 77.0292C62.3878 84.9321 59.5693 94.2234 59.5693 103.728C59.5693 116.474 64.6325 128.697 73.6449 137.71C82.6573 146.722 94.8808 151.785 107.626 151.785ZM107.626 56.6538C116.941 56.6538 126.046 59.4159 133.791 64.5909C141.536 69.7658 147.573 77.1212 151.137 85.7268C154.702 94.3324 155.634 103.802 153.817 112.937C152 122.073 147.514 130.465 140.928 137.051C134.342 143.638 125.95 148.123 116.814 149.94C107.678 151.758 98.2091 150.825 89.6035 147.26C80.9978 143.696 73.6425 137.659 68.4675 129.915C63.2926 122.17 60.5305 113.064 60.5305 103.75C60.5446 91.2633 65.511 79.2925 74.3401 70.4634C83.1692 61.6343 95.14 56.6679 107.626 56.6538Z" fill="black"/>
<path d="M50.289 31.7816H92.5897C94.0965 31.7816 95.5416 32.3802 96.6071 33.4457C97.6726 34.5111 98.2711 35.9562 98.2711 37.463V115.636C98.2711 117.142 97.6726 118.587 96.6071 119.653C95.5416 120.718 94.0965 121.317 92.5897 121.317H38.4563C36.9495 121.317 35.5044 120.718 34.4389 119.653C33.3735 118.587 32.7749 117.142 32.7749 115.636V49.2957L50.289 31.7816Z" fill="url(#paint4_linear_103_616)"/>
<path d="M52.7773 113.5H88.0191C88.6697 113.483 89.2878 113.212 89.741 112.745C90.1942 112.278 90.4463 111.652 90.4433 111.001C90.4433 110.344 90.1823 109.714 89.7176 109.249C89.253 108.784 88.6228 108.523 87.9657 108.523H52.7239C52.0752 108.537 51.4575 108.804 51.0026 109.267C50.5477 109.73 50.2917 110.352 50.2891 111.001C50.2891 111.662 50.5509 112.296 51.0172 112.764C51.4835 113.232 52.1164 113.497 52.7773 113.5Z" fill="white"/>
<path d="M69.3516 44.5648H87.9657C88.6228 44.5648 89.253 44.3038 89.7176 43.8391C90.1822 43.3745 90.4433 42.7443 90.4433 42.0872C90.4433 41.4301 90.1822 40.7999 89.7176 40.3353C89.253 39.8707 88.6228 39.6096 87.9657 39.6096H69.3516C68.6945 39.6096 68.0643 39.8707 67.5997 40.3353C67.135 40.7999 66.874 41.4301 66.874 42.0872C66.874 42.7443 67.135 43.3745 67.5997 43.8391C68.0643 44.3038 68.6945 44.5648 69.3516 44.5648Z" fill="white"/>
<path d="M57.209 54.4004H87.9655C88.6226 54.4004 89.2528 54.1394 89.7174 53.6747C90.182 53.2101 90.4431 52.5799 90.4431 51.9228C90.4431 51.2657 90.182 50.6355 89.7174 50.1709C89.2528 49.7062 88.6226 49.4452 87.9655 49.4452H57.209C56.5519 49.4452 55.9217 49.7062 55.4571 50.1709C54.9925 50.6355 54.7314 51.2657 54.7314 51.9228C54.7314 52.5799 54.9925 53.2101 55.4571 53.6747C55.9217 54.1394 56.5519 54.4004 57.209 54.4004Z" fill="white"/>
<path d="M43.0801 64.2574H87.9332C88.5903 64.2574 89.2205 63.9964 89.6851 63.5318C90.1498 63.0671 90.4108 62.437 90.4108 61.7799C90.4108 61.1228 90.1498 60.4926 89.6851 60.0279C89.2205 59.5633 88.5903 59.3022 87.9332 59.3022H43.0801C42.422 59.3022 41.7907 59.5629 41.3244 60.0273C40.858 60.4916 40.5946 61.1218 40.5918 61.7799C40.5946 62.4379 40.858 63.0681 41.3244 63.5324C41.7907 63.9968 42.422 64.2575 43.0801 64.2574Z" fill="white"/>
<path d="M43.0801 74.1038H69.1696C69.8277 74.1038 70.459 73.8431 70.9254 73.3787C71.3917 72.9144 71.6551 72.2842 71.6579 71.6262C71.6551 70.9681 71.3917 70.3379 70.9254 69.8736C70.459 69.4093 69.8277 69.1486 69.1696 69.1486H43.0801C42.422 69.1486 41.7907 69.4093 41.3244 69.8736C40.858 70.3379 40.5946 70.9681 40.5918 71.6262C40.5946 72.2842 40.858 72.9144 41.3244 73.3787C41.7907 73.8431 42.422 74.1038 43.0801 74.1038Z" fill="white"/>
<path d="M81.1412 74.1038H87.9653C88.6224 74.1038 89.2526 73.8427 89.7172 73.3781C90.1818 72.9135 90.4429 72.2833 90.4429 71.6262C90.4429 70.9691 90.1818 70.3389 89.7172 69.8742C89.2526 69.4096 88.6224 69.1486 87.9653 69.1486H81.1412C80.4841 69.1486 79.8539 69.4096 79.3893 69.8742C78.9246 70.3389 78.6636 70.9691 78.6636 71.6262C78.6636 72.2833 78.9246 72.9135 79.3893 73.3781C79.8539 73.8427 80.4841 74.1038 81.1412 74.1038Z" fill="white"/>
<path d="M43.0801 83.9501H87.9332C88.5903 83.9501 89.2205 83.689 89.6851 83.2244C90.1498 82.7598 90.4108 82.1296 90.4108 81.4725C90.4108 80.8154 90.1498 80.1852 89.6851 79.7206C89.2205 79.2559 88.5903 78.9949 87.9332 78.9949H43.0801C42.422 78.9949 41.7907 79.2556 41.3244 79.7199C40.858 80.1842 40.5946 80.8144 40.5918 81.4725C40.5946 82.1306 40.858 82.7607 41.3244 83.2251C41.7907 83.6894 42.422 83.9501 43.0801 83.9501Z" fill="white"/>
<path d="M60.4019 93.7964H87.9652C88.6223 93.7964 89.2524 93.5354 89.7171 93.0707C90.1817 92.6061 90.4428 91.9759 90.4428 91.3188C90.4428 90.6617 90.1817 90.0315 89.7171 89.5669C89.2524 89.1022 88.6223 88.8412 87.9652 88.8412H60.4019C59.7438 88.8412 59.1125 89.1019 58.6461 89.5662C58.1798 90.0306 57.9164 90.6607 57.9136 91.3188C57.9164 91.9769 58.1798 92.607 58.6461 93.0714C59.1125 93.5357 59.7438 93.7964 60.4019 93.7964Z" fill="white"/>
<path d="M43.0801 93.7964H50.4381C51.0952 93.7964 51.7254 93.5354 52.1901 93.0707C52.6547 92.6061 52.9157 91.9759 52.9157 91.3188C52.9157 90.6617 52.6547 90.0315 52.1901 89.5669C51.7254 89.1022 51.0952 88.8412 50.4381 88.8412H43.0801C42.422 88.8412 41.7907 89.1019 41.3244 89.5662C40.858 90.0306 40.5946 90.6607 40.5918 91.3188C40.5946 91.9769 40.858 92.607 41.3244 93.0714C41.7907 93.5357 42.422 93.7964 43.0801 93.7964Z" fill="white"/>
<path d="M43.0801 103.643H87.9332C88.5903 103.643 89.2205 103.382 89.6851 102.917C90.1498 102.452 90.4108 101.822 90.4108 101.165C90.4108 100.508 90.1498 99.8778 89.6851 99.4132C89.2205 98.9485 88.5903 98.6875 87.9332 98.6875H43.0801C42.422 98.6875 41.7907 98.9482 41.3244 99.4125C40.858 99.8768 40.5946 100.507 40.5918 101.165C40.5946 101.823 40.858 102.453 41.3244 102.918C41.7907 103.382 42.422 103.643 43.0801 103.643Z" fill="white"/>
<path opacity="0.2" d="M50.289 31.7816V43.6143C50.289 45.1211 49.6904 46.5662 48.6249 47.6317C47.5595 48.6971 46.1144 49.2957 44.6076 49.2957H32.7749L50.289 31.7816Z" fill="black"/>
<path d="M192.185 38.9474V22.0314C177.901 22.0165 164.013 26.7195 152.677 35.4098C141.342 44.1 133.194 56.2909 129.499 70.0882C125.805 83.8856 126.771 98.5168 132.247 111.709C137.724 124.9 147.404 135.914 159.784 143.039L168.242 128.387C159.104 123.116 151.961 114.978 147.921 105.233C143.882 95.4889 143.171 84.6836 145.9 74.4941C148.629 64.3045 154.644 55.3005 163.013 48.879C171.382 42.4575 181.636 38.9777 192.185 38.9795V38.9474Z" fill="#263238"/>
<path opacity="0.2" d="M257.008 86.8656C257.005 69.6732 250.175 53.1857 238.019 41.0279C225.863 28.87 209.377 22.0372 192.185 22.0315V38.9475C204.892 38.9504 217.079 43.9998 226.065 52.9855C235.05 61.9713 240.1 74.1578 240.103 86.8656H257.008Z" fill="black"/>
<path d="M257.009 86.8655H240.103C240.103 95.275 237.89 103.536 233.685 110.819C229.48 118.102 223.432 124.15 216.15 128.355C208.867 132.559 200.605 134.773 192.196 134.773C183.786 134.773 175.525 132.559 168.242 128.355L159.784 143.039C169.637 148.715 180.81 151.699 192.182 151.693C203.553 151.686 214.722 148.688 224.569 143C234.415 137.311 242.592 129.133 248.278 119.286C253.965 109.439 256.961 98.2688 256.966 86.8975L257.009 86.8655Z" fill="url(#paint5_linear_103_616)"/>
<path d="M100.973 133.395L121.466 106.921L141.96 133.395H132.316V167.676H110.616V133.395H100.973Z" fill="url(#paint6_linear_103_616)"/>
<defs>
<linearGradient id="paint0_linear_103_616" x1="245.048" y1="0.0590178" x2="244.802" y2="1.92637" gradientUnits="userSpaceOnUse">
<stop stop-color="#55C595"/>
<stop offset="1" stop-color="#359D9E"/>
</linearGradient>
<linearGradient id="paint1_linear_103_616" x1="228.981" y1="0.0590178" x2="228.861" y2="1.95124" gradientUnits="userSpaceOnUse">
<stop stop-color="#55C595"/>
<stop offset="1" stop-color="#359D9E"/>
</linearGradient>
<linearGradient id="paint2_linear_103_616" x1="17.9255" y1="176.706" x2="167.748" y2="-49.9613" gradientUnits="userSpaceOnUse">
<stop stop-color="#55C595"/>
<stop offset="1" stop-color="#359D9E"/>
</linearGradient>
<linearGradient id="paint3_linear_103_616" x1="129.239" y1="293.599" x2="143.389" y2="275.599" gradientUnits="userSpaceOnUse">
<stop stop-color="#55C595"/>
<stop offset="1" stop-color="#359D9E"/>
</linearGradient>
<linearGradient id="paint4_linear_103_616" x1="94.6512" y1="36.7297" x2="18.7523" y2="92.2513" gradientUnits="userSpaceOnUse">
<stop stop-color="#55C595"/>
<stop offset="1" stop-color="#359D9E"/>
</linearGradient>
<linearGradient id="paint5_linear_103_616" x1="251.635" y1="90.4481" x2="198.406" y2="170.279" gradientUnits="userSpaceOnUse">
<stop stop-color="#55C595"/>
<stop offset="1" stop-color="#359D9E"/>
</linearGradient>
<linearGradient id="paint6_linear_103_616" x1="139.695" y1="110.279" x2="89.5868" y2="144.084" gradientUnits="userSpaceOnUse">
<stop stop-color="#55C595"/>
<stop offset="1" stop-color="#359D9E"/>
</linearGradient>
</defs>
</svg>
