<svg width="25" height="25" viewBox="0 0 25 25" fill="none" xmlns="http://www.w3.org/2000/svg">
<path d="M7.50004 9.16666V8.41666C7.08583 8.41666 6.75004 8.75245 6.75004 9.16666H7.50004ZM7.50004 10.8333L8.03037 11.3637L8.25004 11.144V10.8333H7.50004ZM4.65486 11.3215L4.12453 11.8518L4.12453 11.8518L4.65486 11.3215ZM10.8334 21.6667H11.5834V21.356L11.3637 21.1363L10.8334 21.6667ZM9.16671 20H8.41671V20.3107L8.63638 20.5303L9.16671 20ZM9.16671 17.5H9.91671V17.1893L9.69704 16.9697L9.16671 17.5ZM7.50004 15.8333H6.75004V16.144L6.96971 16.3637L7.50004 15.8333ZM7.50004 14.1667V13.4167C7.08583 13.4167 6.75004 13.7524 6.75004 14.1667H7.50004ZM15.0834 0.833328V4.16666H16.5834V0.833328H15.0834ZM14.1667 5.08333H12.5V6.58333H14.1667V5.08333ZM9.16671 8.41666H7.50004V9.91666H9.16671V8.41666ZM6.75004 9.16666V10.8333H8.25004V9.16666H6.75004ZM6.96971 10.303L6.48155 10.7912L7.54221 11.8518L8.03037 11.3637L6.96971 10.303ZM5.18519 10.7912L2.19704 7.803L1.13638 8.86366L4.12453 11.8518L5.18519 10.7912ZM10.0834 7.49999C10.0834 8.00626 9.67297 8.41666 9.16671 8.41666V9.91666C10.5014 9.91666 11.5834 8.83468 11.5834 7.49999H10.0834ZM12.5 5.08333C11.1654 5.08333 10.0834 6.16531 10.0834 7.49999H11.5834C11.5834 6.99373 11.9938 6.58333 12.5 6.58333V5.08333ZM6.48155 10.7912C6.12357 11.1491 5.54317 11.1491 5.18519 10.7912L4.12453 11.8518C5.0683 12.7956 6.59845 12.7956 7.54221 11.8518L6.48155 10.7912ZM15.0834 4.16666C15.0834 4.67292 14.673 5.08333 14.1667 5.08333V6.58333C15.5014 6.58333 16.5834 5.50135 16.5834 4.16666H15.0834ZM11.5834 24.1667V21.6667H10.0834V24.1667H11.5834ZM11.3637 21.1363L9.69704 19.4697L8.63638 20.5303L10.303 22.197L11.3637 21.1363ZM9.91671 20V17.5H8.41671V20H9.91671ZM9.69704 16.9697L8.03037 15.303L6.96971 16.3637L8.63638 18.0303L9.69704 16.9697ZM8.25004 15.8333V14.1667H6.75004V15.8333H8.25004ZM7.50004 14.9167H14.1667V13.4167H7.50004V14.9167ZM15.0834 15.8333V16.9444H16.5834V15.8333H15.0834ZM18.0556 19.9167H22.5V18.4167H18.0556V19.9167ZM16.75 18.6111C16.75 19.3321 17.3346 19.9167 18.0556 19.9167V18.4167C18.163 18.4167 18.25 18.5037 18.25 18.6111H16.75ZM16.3889 18.25C16.5884 18.25 16.75 18.4117 16.75 18.6111H18.25C18.25 17.5832 17.4168 16.75 16.3889 16.75V18.25ZM15.0834 16.9444C15.0834 17.6655 15.6679 18.25 16.3889 18.25V16.75C16.4963 16.75 16.5834 16.837 16.5834 16.9444H15.0834ZM14.1667 14.9167C14.673 14.9167 15.0834 15.3271 15.0834 15.8333H16.5834C16.5834 14.4986 15.5014 13.4167 14.1667 13.4167V14.9167ZM12.5 23.4167C6.47093 23.4167 1.58337 18.5291 1.58337 12.5H0.083374C0.083374 19.3575 5.64251 24.9167 12.5 24.9167V23.4167ZM23.4167 12.5C23.4167 18.5291 18.5292 23.4167 12.5 23.4167V24.9167C19.3576 24.9167 24.9167 19.3575 24.9167 12.5H23.4167ZM12.5 1.58333C18.5292 1.58333 23.4167 6.47089 23.4167 12.5H24.9167C24.9167 5.64246 19.3576 0.0833282 12.5 0.0833282V1.58333ZM12.5 0.0833282C5.64251 0.0833282 0.083374 5.64246 0.083374 12.5H1.58337C1.58337 6.47089 6.47093 1.58333 12.5 1.58333V0.0833282Z" fill="white"/>
</svg>
