<svg width="73" height="60" viewBox="0 0 73 60" fill="none" xmlns="http://www.w3.org/2000/svg">
<path d="M70.5714 10.3178C77.7865 22.8217 68.3812 41.7701 49.564 52.6403C30.7469 63.5105 9.64362 62.1861 2.42859 49.6822C-4.78652 37.1784 4.61883 18.2299 23.4359 7.3597C42.253 -3.5105 63.3563 -2.18609 70.5714 10.3178Z" fill="#F9FAFF"/>
<path d="M50.2781 22.2996C51.8027 20.7494 54.2745 20.7494 55.7991 22.2996C57.3238 23.8497 57.3238 26.363 55.7991 27.9132L42.9163 41.0116C41.3918 42.5617 38.9199 42.5617 37.3953 41.0116C35.8707 39.4614 35.8707 36.9483 37.3953 35.398L50.2781 22.2996Z" fill="url(#paint0_linear_2_14)"/>
<path d="M37.242 22.1437C38.7666 20.5935 41.2385 20.5935 42.7631 22.1437C44.2878 23.6939 44.2878 26.2071 42.7631 27.7573L29.8805 40.8558C28.3558 42.4058 25.8839 42.4058 24.3592 40.8558C22.8346 39.3055 22.8346 36.7922 24.3592 35.2421L37.242 22.1437Z" fill="url(#paint1_linear_2_14)"/>
<path d="M24.0526 22.1437C25.5772 20.5935 28.0491 20.5935 29.5737 22.1437C31.0984 23.6939 31.0984 26.2071 29.5737 27.7573L25.2795 32.1235C23.7548 33.6735 21.283 33.6735 19.7583 32.1235C18.2337 30.5732 18.2337 28.06 19.7583 26.5099L24.0526 22.1437Z" fill="url(#paint2_linear_2_14)"/>
<path d="M30.3405 29.1607C30.0441 29.4622 29.4867 29.5401 29.1903 29.2386C28.8938 28.9374 28.9705 28.3706 29.2669 28.0692L25.2794 32.1234C24.7885 32.6228 24.1993 32.9611 23.575 33.1388L23.4635 36.6548C23.6532 36.1396 23.9517 35.6565 24.3592 35.2422L30.3405 29.1607Z" fill="#359D9E"/>
<path d="M43.07 29.6285C43.07 29.6285 42.4564 30.2524 41.9196 29.7066C41.3828 29.1607 41.9963 28.5369 41.9963 28.5369L36.3218 34.3064L36.4713 36.8901C36.6589 36.3452 36.9669 35.8335 37.3955 35.3981L43.07 29.6285Z" fill="#359D9E"/>
<defs>
<linearGradient id="paint0_linear_2_14" x1="55.7991" y1="22.2996" x2="37.0898" y2="40.701" gradientUnits="userSpaceOnUse">
<stop stop-color="#55C595"/>
<stop offset="1" stop-color="#359D9E"/>
</linearGradient>
<linearGradient id="paint1_linear_2_14" x1="42.7631" y1="22.1437" x2="24.0537" y2="40.5451" gradientUnits="userSpaceOnUse">
<stop stop-color="#55C595"/>
<stop offset="1" stop-color="#359D9E"/>
</linearGradient>
<linearGradient id="paint2_linear_2_14" x1="30.0484" y1="21.6611" x2="19.1051" y2="32.4244" gradientUnits="userSpaceOnUse">
<stop stop-color="#55C595"/>
<stop offset="1" stop-color="#359D9E"/>
</linearGradient>
</defs>
</svg>
