<svg width="30" height="30" viewBox="0 0 30 30" fill="none" xmlns="http://www.w3.org/2000/svg">
<g clip-path="url(#clip0_174_891)">
<path d="M15 0C11.0227 0 7.20469 1.58133 4.39453 4.39336C1.58148 7.20651 0.000779226 11.0217 0 15C0 18.9766 1.58203 22.7946 4.39453 25.6066C7.20469 28.4187 11.0227 30 15 30C18.9773 30 22.7953 28.4187 25.6055 25.6066C28.418 22.7946 30 18.9766 30 15C30 11.0234 28.418 7.20539 25.6055 4.39336C22.7953 1.58133 18.9773 0 15 0Z" fill="url(#paint0_linear_174_891)"/>
<path d="M6.79005 14.842C11.1635 12.937 14.0791 11.681 15.5369 11.0742C19.7041 9.3415 20.569 9.04056 21.1338 9.03036C21.258 9.02837 21.5346 9.05907 21.715 9.20497C21.865 9.32802 21.9072 9.49442 21.9283 9.61126C21.9471 9.72798 21.9729 9.994 21.9518 10.2017C21.7268 12.5735 20.7494 18.3293 20.2526 20.9859C20.044 22.11 19.6291 22.4869 19.2283 22.5237C18.3565 22.6038 17.6955 21.9481 16.8518 21.3952C15.5322 20.5296 14.7869 19.991 13.5049 19.1466C12.0236 18.1706 12.9846 17.6342 13.8283 16.7576C14.0486 16.5281 17.8877 13.0371 17.9604 12.7205C17.9697 12.6809 17.9791 12.5332 17.89 12.4554C17.8033 12.3774 17.6744 12.4041 17.5807 12.4252C17.4471 12.4552 15.34 13.8492 11.2525 16.6071C10.6549 17.0182 10.1135 17.2186 9.62599 17.2081C9.09161 17.1966 8.06036 16.9052 7.29396 16.6563C6.35646 16.3509 5.6088 16.1895 5.67442 15.6708C5.70724 15.4008 6.07989 15.1245 6.79005 14.842Z" fill="white"/>
</g>
<defs>
<linearGradient id="paint0_linear_174_891" x1="1500" y1="0" x2="1500" y2="3000" gradientUnits="userSpaceOnUse">
<stop stop-color="#2AABEE"/>
<stop offset="1" stop-color="#229ED9"/>
</linearGradient>
<clipPath id="clip0_174_891">
<rect width="30" height="30" fill="white"/>
</clipPath>
</defs>
</svg>
